<svg width="296" height="216" viewBox="0 0 296 216" fill="none" xmlns="http://www.w3.org/2000/svg">
<mask id="mask0_571_1641" style="mask-type:luminance" maskUnits="userSpaceOnUse" x="0" y="105" width="25" height="70">
<path d="M24.87 175L3.86997 127.56C3.10803 125.845 2.47299 124.077 1.96997 122.27C1.47586 120.458 1.10831 118.613 0.869971 116.75C0.638353 114.846 0.538117 112.928 0.569972 111.01C0.605724 109.021 0.772754 107.037 1.06997 105.07L21.49 151.73C21.2557 153.761 21.1488 155.805 21.17 157.85C21.1908 159.838 21.3445 161.822 21.63 163.79C21.9152 165.722 22.3294 167.633 22.87 169.51C23.4094 171.384 24.0777 173.218 24.87 175Z" fill="white"/>
</mask>
<g mask="url(#mask0_571_1641)">
<path d="M8.32998 133C8.14998 130.84 8.42998 130 9.15998 130.47C11.99 132.36 15.68 147.72 15 150.4L14.82 150.45C13.94 149.6 8.92998 138.45 8.32998 133ZM16.79 152.18C13.88 128.02 7.78998 123.18 6.68998 124.84C3.85998 129.23 15.47 154.37 16.89 156.15H17.09C17.16 155.71 17.19 155.51 16.79 152.21" fill="#1A1A1A"/>
</g>
<mask id="mask1_571_1641" style="mask-type:luminance" maskUnits="userSpaceOnUse" x="1" y="0" width="294" height="152">
<path d="M282.6 44.91L294.26 95.1301C294.26 95.0201 294.21 94.91 294.18 94.8C294.15 94.69 294.13 94.59 294.11 94.48L294.02 94.16C294.02 94.05 294.02 93.95 293.94 93.84C291.21 83.51 284.86 74.76 275.85 67.75C267.08 60.91 255.75 55.69 242.7 52.22C228.703 48.6614 214.301 46.9469 199.86 47.12C183.444 47.2607 167.089 49.1412 151.07 52.73C134.717 56.3192 118.766 61.5455 103.46 68.33C89.4123 74.5083 76.0913 82.2219 63.7401 91.33C52.0001 100 42.1701 109.66 34.9101 119.73C27.4901 130.04 22.7301 140.87 21.4901 151.73L1.07007 105.06C2.66007 94.55 7.84007 83.98 15.7301 73.89C23.4401 64.03 33.7901 54.54 46.0201 45.89C58.948 36.8701 72.7669 29.2 87.2601 23C103.096 16.1499 119.538 10.7933 136.37 7.00005C152.819 3.22137 169.6 1.07431 186.47 0.590042C201.196 0.108345 215.925 1.4519 230.32 4.59004C243.66 7.66004 255.2 12.45 264.11 18.85C273.25 25.43 279.65 33.73 282.29 43.65C282.29 43.75 282.35 43.8601 282.37 43.9601C282.39 44.0601 282.43 44.1701 282.45 44.2701C282.47 44.3701 282.5 44.47 282.53 44.58C282.56 44.69 282.58 44.8 282.6 44.91Z" fill="white"/>
</mask>
<g mask="url(#mask1_571_1641)">
<path d="M16.92 139C17.13 137.64 17.4 136.29 17.72 134.94C18.04 133.59 18.41 132.25 18.84 130.94C19.27 129.63 19.73 128.27 20.25 126.94C20.77 125.61 21.34 124.29 21.96 122.94L19.89 118.11C19.45 119.04 19.03 119.97 18.64 120.91C18.25 121.85 17.88 122.78 17.54 123.72C17.2 124.66 16.87 125.61 16.54 126.55C16.21 127.49 15.98 128.45 15.74 129.39L8.51003 112.77C8.40003 113.15 8.30003 113.54 8.20003 113.93L8.00003 115.14C7.91003 115.53 7.83003 115.92 7.75003 116.31C7.67003 116.7 7.60003 117.1 7.53003 117.49L16.92 139Z" fill="#1A1A1A"/>
<path d="M19.89 118.15L22 123C21.38 124.32 20.81 125.64 20.29 127C19.77 128.36 19.29 129.66 18.88 131C18.47 132.34 18.08 133.68 17.76 135C17.44 136.32 17.17 137.7 16.96 139.06L7.49996 117.49C7.56996 117.1 7.64996 116.71 7.71996 116.31C7.78996 115.91 7.87996 115.53 7.96996 115.14L8.23996 113.97C8.33996 113.58 8.43996 113.19 8.54996 112.81L15.78 129.43C16.02 128.49 16.29 127.54 16.58 126.59C16.87 125.64 17.19 124.7 17.58 123.76C17.97 122.82 18.29 121.88 18.68 120.95C19.07 120.02 19.49 119.08 19.93 118.15M17.1 140C17.3133 138.58 17.5833 137.16 17.91 135.74C18.24 134.33 18.62 132.92 19.07 131.51C19.52 130.1 20 128.71 20.55 127.32C21.1 125.93 21.71 124.54 22.36 123.16V122.9L19.9 117.14C19.45 118.07 19.03 119 18.63 119.94C18.23 120.88 17.85 121.81 17.5 122.75C17.15 123.69 16.82 124.63 16.5 125.57C16.18 126.51 15.92 127.47 15.67 128.42L8.43996 111.78C8.30996 112.24 8.18996 112.7 8.06996 113.15C7.94996 113.6 7.84996 114.07 7.74996 114.53C7.64996 114.99 7.54996 115.45 7.45996 115.92C7.36996 116.39 7.28996 116.84 7.20996 117.3L17.1 140Z" fill="#1A1A1A"/>
<path d="M21.5099 93.7799C23.2499 95.3999 25.0399 97.0799 27.7699 99.5799C27.3599 100.11 26.9499 100.65 26.5599 101.19C26.1699 101.73 25.7699 102.27 25.3899 102.81C25.0099 103.35 24.6299 103.9 24.2699 104.45C23.9099 105 23.5399 105.54 23.1899 106.09C22.4299 100.74 22.1899 99.0899 21.5099 93.7799ZM22.4499 122C22.6299 121.61 22.8299 121.22 23.0199 120.84L23.6199 119.68L24.2499 118.53C24.4599 118.14 24.6699 117.76 24.8899 117.38L24.0599 112C24.5499 111.19 25.0599 110.37 25.5899 109.56C26.1199 108.75 26.6599 107.95 27.2299 107.14C27.7999 106.33 28.3599 105.54 28.9599 104.74C29.5599 103.94 30.1599 103.16 30.7799 102.37L33.5599 104.87L34.5599 103.7L35.5599 102.55C35.8899 102.16 36.2299 101.78 36.5599 101.39C36.8899 101 37.2399 100.63 37.5599 100.25C33.5599 96.8599 28.7099 92.7499 22.1999 86.9199C21.8099 87.4199 21.4299 87.9199 21.0599 88.4099L19.9599 89.9099L18.8999 91.4099C18.5499 91.9099 18.2099 92.4099 17.8999 92.9199C18.8999 100.3 20.2399 109.24 22.4999 121.99" fill="#1A1A1A"/>
<path d="M22.0499 94.9999C23.6999 96.5499 24.8999 97.6699 27.0499 99.6399L26.0499 100.93C25.7399 101.36 25.4199 101.79 25.1199 102.23C24.8199 102.67 24.5099 103.1 24.2199 103.53L23.3399 104.85C22.8999 101.68 22.5599 99.1799 22.0199 94.9999M23.1599 106.06C23.5099 105.51 23.8699 104.96 24.2399 104.42C24.6099 103.88 24.9799 103.33 25.3599 102.78C25.7399 102.23 26.1299 101.7 26.5299 101.16C26.9299 100.62 27.3299 100.08 27.7399 99.5499C25.7399 97.7599 24.1099 96.2199 21.4799 93.7499C22.1799 99.0599 22.4099 100.75 23.1599 106.06ZM30.7499 102.31C30.1299 103.1 29.5199 103.89 28.9299 104.68C28.3399 105.47 27.7599 106.28 27.1999 107.08C26.6399 107.88 26.0899 108.69 25.5599 109.5C25.0299 110.31 24.5599 111.13 24.0299 111.94L24.8599 117.31C24.6399 117.69 24.4299 118.07 24.2199 118.46L23.5899 119.61L22.9999 120.8C22.8099 121.18 22.6099 121.57 22.4299 121.96C21.1599 114.75 19.6499 105.96 17.8299 92.8899C18.1599 92.3899 18.4999 91.8899 18.8299 91.3799L19.8899 89.8799L20.9899 88.3799C21.3599 87.8799 21.7399 87.3799 22.1299 86.8899C24.7899 89.2699 29.7499 93.6999 37.4899 100.22C37.1499 100.6 36.7999 100.98 36.4899 101.36C36.1799 101.74 35.8099 102.13 35.4899 102.52L34.4899 103.67L33.4899 104.84L30.7099 102.34M22.2899 123.19C22.5099 122.73 22.7399 122.26 22.9699 121.8C23.1999 121.34 23.4399 120.87 23.6799 120.41C23.9199 119.95 24.1699 119.48 24.4299 119.02C24.6899 118.56 24.9399 118.1 25.2099 117.64L24.3799 112.28C24.8499 111.51 25.3799 110.74 25.8399 109.97C26.2999 109.2 26.8399 108.44 27.3899 107.67C27.9399 106.9 28.4699 106.15 29.0299 105.4C29.5899 104.65 30.1699 103.89 30.7599 103.14L33.5299 105.63C33.8999 105.16 34.2799 104.7 34.6699 104.24C35.0599 103.78 35.4399 103.32 35.8399 102.86C36.2399 102.4 36.6299 101.95 37.0399 101.49L38.2699 100.13C31.9699 94.8299 27.7199 91.1299 22.0399 86.1299C21.6199 86.6599 21.2099 87.1999 20.8099 87.7299C20.4099 88.2599 20.0099 88.8099 19.6199 89.3499L18.4699 90.9699C18.0999 91.5199 17.7299 92.0599 17.3699 92.6099C18.7399 102.21 20.0299 110.61 22.2399 122.97V123.23" fill="#1A1A1A"/>
<path d="M38.6399 99.0002C38.9599 98.6502 39.2899 98.3102 39.6399 98.0002L40.6399 97.0002L41.6399 96.0002L42.6399 95.0002L36.6399 80.3402C40.7299 81.5302 43.5299 82.3402 53.6399 85.2202L54.8799 84.2202L56.1299 83.2202L57.3899 82.2202L58.6699 81.2202L50.4599 60.2202L49.1899 61.1502L47.9299 62.0902L46.6899 63.0902L45.4599 64.0402L50.9999 78.0402C45.3899 76.3602 40.2899 74.8302 34.7899 73.1502L33.5399 74.3302L32.3199 75.5302L31.1099 76.7302C30.7199 77.1302 30.3199 77.5302 29.9399 77.9402L38.6399 99.0002Z" fill="#1A1A1A"/>
<path d="M36.7199 80.2201L42.7199 94.8801L41.7199 95.8801L40.7199 96.8801L39.7199 97.8801C39.3899 98.2301 39.0599 98.5701 38.7199 98.8801L29.9999 77.9001C30.3799 77.4901 30.7799 77.0901 31.1699 76.6901L32.3799 75.4901L33.5999 74.2901L34.8499 73.1101C38.4499 74.2101 41.5599 75.1101 51.0599 78.0001L45.5199 64.0001L46.7499 63.0501L47.9899 62.0501L49.2499 61.1101L50.5199 60.1801L58.7299 81.1801L57.4499 82.1801L56.1899 83.1801L54.9399 84.1801L53.6999 85.1801C45.9499 82.9601 42.6999 82.0501 36.6999 80.3001M38.5099 100C38.8899 99.5801 39.2799 99.1701 39.6699 98.7601C40.0599 98.3501 40.4499 97.9401 40.8399 97.5301C41.2299 97.1201 41.6399 96.7201 42.0499 96.3201L43.2699 95.1001L37.6499 81.2301C40.9499 82.1801 43.7999 83.0101 53.7299 85.8401L55.1199 84.7301C55.5799 84.3601 56.0499 84.0001 56.5299 83.6301L57.9499 82.5401L59.3999 81.4601L50.7599 59.3501C50.2499 59.7101 49.7599 60.0801 49.2499 60.4501L47.7599 61.5601C47.2599 61.9301 46.7599 62.3001 46.2899 62.6801C45.8199 63.0601 45.2899 63.4301 44.8399 63.8101L50.0899 77.0001C46.6399 76.0001 40.2099 74.0001 34.7699 72.3701C34.2999 72.8001 33.8399 73.2401 33.3799 73.6801L31.9999 75.0001C31.5499 75.4401 31.1099 75.8901 30.6699 76.3301L29.3699 77.6801L38.5099 100Z" fill="#1A1A1A"/>
<path d="M67.4799 54.7502C73.1799 51.5202 76.4799 51.8202 78.1699 55.7502L78.2299 55.9202C79.4999 59.9202 77.7299 62.9202 71.9499 66.5802L70.2799 67.5802L68.6199 68.5802L66.9899 69.5802L65.3699 70.6302L60.8299 58.8102L62.4699 57.7601L64.1199 56.7601C64.6699 56.4101 65.2299 56.0701 65.7899 55.7601L67.4799 54.7601M61.7899 79.0002C62.7899 78.3002 63.7899 77.6002 64.7899 76.9102C65.7899 76.2202 66.7899 75.5402 67.8499 74.8602C68.9099 74.1802 69.9299 73.5102 70.9799 72.8602C72.0299 72.2102 73.0999 71.5302 74.1799 70.8602C80.1799 67.2002 87.7999 61.3502 84.7599 52.8602L84.4399 51.9902C81.9599 45.3602 75.3199 44.6101 66.2299 49.9301C65.1399 50.5801 64.0599 51.2401 62.9799 51.9301C61.8999 52.6201 60.8499 53.2601 59.7999 53.9301C58.7499 54.6001 57.7099 55.2901 56.6899 55.9301C55.6699 56.5701 54.6899 57.3101 53.6899 58.0101L61.8399 79.0101" fill="#1A1A1A"/>
<path d="M67.6901 55.3201C73.1101 52.2301 76.0801 52.4401 77.6301 56.0301L77.6901 56.2001C78.8601 59.9001 77.2401 62.5601 71.6901 66.0201L70.1401 66.9601L68.6101 67.9101L67.1001 68.9101L65.6001 69.9101L61.5001 59.2101L63.0101 58.2101L64.5401 57.2101L66.0801 56.2101L67.6401 55.2701M65.3201 70.6701L66.9401 69.6201L68.5701 68.6201L70.2301 67.6201L71.9001 66.6201C77.6801 62.9701 79.4501 59.9801 78.1801 55.9601L78.1201 55.7901C76.4301 51.8701 73.1201 51.5701 67.4301 54.7901L65.7401 55.7901C65.1801 56.1301 64.6201 56.4701 64.0701 56.7901L62.4201 57.7901L60.7801 58.8401L65.3201 70.6601M66.1801 49.8201C75.2701 44.5001 81.9101 45.2501 84.3901 51.8801L84.7101 52.7501C87.7101 61.2601 80.1301 67.1101 74.1301 70.7501C73.0501 71.4001 71.9901 72.0601 70.9301 72.7501C69.8701 73.4401 68.8301 74.0801 67.8001 74.7501C66.7701 75.4201 65.8001 76.1101 64.7401 76.8001C63.6801 77.4901 62.7401 78.1901 61.7401 78.8901L53.5901 57.8901C54.5901 57.1901 55.5901 56.5001 56.5901 55.8101C57.5901 55.1201 58.6501 54.4501 59.7001 53.8101C60.7501 53.1701 61.8101 52.4701 62.8801 51.8101C63.9501 51.1501 65.0401 50.4901 66.1301 49.8101M61.4401 79.8101C62.4401 79.0701 63.4401 78.3501 64.5401 77.6301C65.6401 76.9101 66.6401 76.1901 67.7201 75.4901C68.8001 74.7901 69.8701 74.0801 70.9701 73.3901C72.0701 72.7001 73.1701 72.0201 74.2901 71.3401C78.2901 68.9201 88.7901 62.4901 85.2101 52.4901L84.9001 51.6201C82.2701 44.6201 75.3601 43.7501 65.9001 49.2801C64.7601 49.9501 63.6401 50.6301 62.5201 51.2801C61.4001 51.9301 60.3001 52.6701 59.2101 53.3701C58.1201 54.0701 57.0501 54.7801 55.9801 55.4901C54.9101 56.2001 53.8601 56.9301 52.8201 57.6601L61.4201 79.7701" fill="#1A1A1A"/>
<path d="M91.16 61.5801L92.72 60.8201L94.3 60.0701L95.88 59.3301L97.48 58.6001L89.95 37.6001L88.33 38.3301L86.72 39.0801C86.18 39.3201 85.65 39.5701 85.12 39.8301L83.53 40.5901L91.16 61.5901" fill="#1A1A1A"/>
<path d="M90 37.6301L97.53 58.6301L95.93 59.36L94.3501 60.1001L92.7701 60.8501L91.2101 61.61L83.58 40.61L85.17 39.8501C85.7 39.5901 86.2301 39.3401 86.7701 39.1001L88.3801 38.3501L90 37.62M90.8501 62.39L92.69 61.5L94.54 60.61L96.41 59.7401L98.3 58.8801L90.3801 36.79L88.47 37.66L86.56 38.53L84.68 39.42L82.8 40.3201L90.8501 62.39Z" fill="#1A1A1A"/>
<path d="M101.32 56.8902L102.93 56.2102L104.54 55.5202L106.17 54.8502L107.81 54.1902L102.68 39.6002C110.27 42.5302 115.68 44.6602 124.4 48.2202L126.18 47.6602L127.98 47.1102L129.78 46.5602L131.58 46.0302L124.58 24.9702L122.8 25.4902L121 26.0002L119.23 26.5502L117.47 27.1002L122.22 41.1002C117.22 39.0302 111.64 36.6802 101.57 32.7002L99.6198 33.4702L97.6798 34.2502L95.7598 35.0502L93.8499 35.8602L101.32 56.8602" fill="#1A1A1A"/>
<path d="M102.68 39.6L107.81 54.19L106.17 54.85L104.54 55.52L102.93 56.21L101.32 56.89L93.85 35.89L95.76 35.08L97.68 34.28L99.62 33.5L101.57 32.73C107.47 35.07 113.49 37.47 122.22 41.13L117.47 27.13L119.23 26.58L121 26L122.78 25.47L124.56 24.95L131.56 46.01L129.76 46.54L127.96 47.09L126.16 47.64L124.38 48.2C117.21 45.27 111.88 43.13 102.66 39.58M100.91 57.68L102.81 56.86L104.72 56.05L106.64 55.26L108.58 54.48L103.73 40.66C109.84 43.02 115.6 45.27 124.31 48.84L126.31 48.2L128.31 47.58L130.31 46.97L132.31 46.38L125 24.21L122.88 24.83C122.213 25.03 121.513 25.24 120.78 25.46L118.69 26.1L116.61 26.76L121.11 40.04C116.75 38.22 110.77 35.73 101.6 32.1L99.43 32.95L97.28 33.82L95.14 34.71L93.03 35.61L100.9 57.7" fill="#1A1A1A"/>
<path d="M151.71 41.4701H151.89H152.07H152.26H152.44C154.57 41.0301 161.05 39.6901 163.33 35.7001L163.56 35.2801C164.5 36.3129 165.288 37.4746 165.9 38.7301L166.9 38.5801L167.9 38.4301L168.9 38.3001L169.9 38.1601L166.34 26.5501L162.05 27.1501C160.62 27.3701 159.18 27.5901 157.73 27.8401C156.28 28.0901 154.84 28.3301 153.38 28.6001C151.92 28.8701 150.46 29.1501 149 29.4501L150.13 33.0101L152.66 32.5101L155.19 32.0401L157.7 31.6001L160.2 31.1801L160.31 31.5201C160.74 34.5201 146.74 39.8901 140.95 35.5201C140.048 34.8703 139.373 33.9539 139.02 32.9001L138.92 32.5801C136.54 23.6901 152.99 22.5001 156.45 24.5801C156.865 24.8367 157.241 25.1497 157.57 25.5101L159.57 25.1901L161.57 24.8901L163.57 24.6001L165.57 24.3301C164.28 21.3301 160.08 16.6601 146.5 19.3301L146.12 19.4101L145.75 19.4801L145.37 19.5601L144.99 19.6401C134.05 21.9801 128.99 27.3301 131.22 34.3101L131.49 35.1201C133.07 39.6401 137.87 44.4301 151.7 41.6301" fill="#1A1A1A"/>
<path d="M163.56 35.1302C161.16 39.5202 155.27 40.7302 152.44 41.3202H152.26H152.07H151.89H151.71C137.79 44.1102 133.03 39.3202 131.5 34.8102L131.23 34.0002C129.04 27.0002 134.06 21.6702 145 19.3302L145.38 19.2502L145.76 19.1702L146.13 19.1002L146.51 19.0202C160.14 16.3502 164.31 21.0202 165.58 24.0202L163.58 24.2902L161.58 24.5802L159.58 24.8802L157.58 25.2002C153.75 21.2002 138.96 23.8802 138.58 30.1102C138.576 30.8456 138.684 31.5773 138.9 32.2802L139 32.6002C141.72 40.1402 157.62 36.3302 160.09 32.1302C160.269 31.8593 160.34 31.5311 160.29 31.2102L160.18 30.8702L157.68 31.2902L155.17 31.7302L152.64 32.2002L150.11 32.7002L148.98 29.1402C150.44 28.8402 151.91 28.5602 153.36 28.2902C154.81 28.0202 156.27 27.7702 157.71 27.5302C159.15 27.2902 160.6 27.0602 162.03 26.8402L166.32 26.2402L170 38.0002L169 38.1402L168 38.2702L167 38.4202L166 38.5702C165.468 37.4715 164.795 36.4463 164 35.5202L163.65 35.1202M151.89 42.0002H152.07H152.25H152.43H152.61C156.41 41.2202 161.1 39.8802 163.61 36.4802C164.17 36.6202 165.37 39.0802 165.38 39.1102L165.48 39.3502L166.82 39.1502L168.16 38.9702C168.6 38.9002 169.05 38.8502 169.49 38.7902L170.82 38.6202L166.93 25.8802C165.4 26.0802 163.86 26.2902 162.32 26.5202C160.78 26.7502 159.22 26.9902 157.67 27.2502C156.12 27.5102 154.55 27.7902 152.98 28.0802C151.41 28.3702 149.84 28.6802 148.26 29.0002L149.75 33.6802L152.26 33.1802L154.76 32.7102L157.25 32.2602L159.73 31.8402C158.17 35.8402 142.89 39.4002 140.02 33.2802C139.94 33.1202 139.86 32.8902 139.8 32.7302L139.7 32.4002C137.48 24.1402 153.03 23.0502 156.27 25.0702C156.645 25.3126 156.982 25.6091 157.27 25.9502L157.41 26.1302L159.6 25.7802L161.78 25.4402L164 25.0002C164.72 24.8902 165.44 24.8002 166.16 24.7002L166.5 24.6302C164.15 18.5702 157.2 16.4802 146.38 18.6302L146 18.7102L145.63 18.7802L145.25 18.8602L144.87 18.9402C128.72 22.4002 129.53 30.8802 130.63 34.3602L130.9 35.1702C132.57 39.9202 137.57 44.9602 151.9 42.0502" fill="#1A1A1A"/>
<path d="M188.14 37.37C206.36 36.12 196.49 26.31 196.37 26.22C192.73 23.39 186.14 23.31 182.2 23.22C178.02 23.17 175.43 23.06 174.92 21.45C174.35 19.64 177.51 18.7 180.67 18.45C187.1 17.88 190.67 19.83 192.12 20.66L194.12 17.11C183.62 11.11 166.97 14.68 169.37 22.44C170.81 27.11 177.82 27.68 184.87 27.86C198.09 28.2 193.22 32.13 191.94 32.52C191.86 32.52 182.76 34.93 174.94 30.92L174.23 30.53L171.99 34.26C177.025 36.7163 182.625 37.783 188.21 37.35" fill="#1A1A1A"/>
<path d="M211.77 36.8802L213.05 36.9702L214.32 37.0802L215.59 37.1902C216.01 37.1902 216.43 37.2302 216.85 37.3102L212 19.5402L214.41 19.7702L216.8 20.0302L219.16 20.3202L221.5 20.6402L220.31 16.1902C218.31 15.9202 216.37 15.6702 214.36 15.4602C212.35 15.2502 210.36 15.0702 208.26 14.9202C206.16 14.7702 204.12 14.6602 202.02 14.5802C199.92 14.5002 197.8 14.4502 195.65 14.4302L196.9 18.8302C197.74 18.8302 198.59 18.8302 199.42 18.8302L201.93 18.9002L204.42 19.0002L206.88 19.1302L211.8 36.8502" fill="#1A1A1A"/>
<path d="M240.72 42.1599C245.66 43.2999 250.43 43.2499 248.42 34.1599L245.36 22.0999L244.36 21.7399L243.3 21.3899L242.24 21.0499L241.16 20.7199L244.16 32.3599C246.33 41.9099 236.78 36.5699 236.68 36.5199C235.3 35.7022 234.097 34.6178 233.141 33.3301C232.184 32.0425 231.494 30.5772 231.11 29.0199L228 17.4899L226.83 17.2699L225.64 17.0499L224.45 16.8399L223.25 16.6499L226.42 28.5299C227.368 31.8724 229.195 34.8996 231.71 37.2967C234.225 39.6938 237.336 41.3731 240.72 42.1599Z" fill="#1A1A1A"/>
<path d="M259.51 32.2202C267.22 36.6302 268.89 46.5302 266.65 47.2202C265.65 47.5602 263.87 46.6702 262.95 46.2202L261.81 45.6202L260.66 45.0202L259.5 44.4402L258.32 43.8802L254.86 29.8802L256.04 30.4402L257.22 31.0002L258.37 31.5802L259.51 32.1802M255.51 46.4702L257.78 47.4702C258.53 47.8102 259.27 48.1602 260 48.4702C260.73 48.7802 261.46 49.1902 262.17 49.5602C262.88 49.9302 263.58 50.3002 264.28 50.6902C267.05 52.1502 273.55 55.5602 270.18 43.7702C268.72 38.6902 265.54 31.7702 258.66 27.7702C257.96 27.4002 257.25 27.0302 256.53 26.6802C255.81 26.3302 255.09 25.9702 254.35 25.6802C253.61 25.3902 252.86 25.0102 252.11 24.6802C251.36 24.3502 250.58 24.0302 249.81 23.6802L255.51 46.4202" fill="#1A1A1A"/>
<path d="M276 58.8202L276.72 59.4402L277.42 60.0802L278.11 60.7301C278.34 60.9401 278.56 61.1602 278.78 61.3802L273.27 38.1501L272.59 37.5202L271.9 36.8902L271.19 36.2702L270.47 35.6602L276 58.8202Z" fill="#1A1A1A"/>
<path d="M282.46 52.4599C285.66 58.2399 287.91 69.4599 287.75 70.2899H287.58C284.13 67.2299 278.25 50.1899 280.74 50.4599C280.97 50.4599 281.5 50.7799 282.46 52.4599ZM287.19 72.7199C288.82 75.5699 288.98 75.7999 289.34 76.1899H289.54C289.8 71.1899 282.01 43.0299 278.22 44.9399C278.17 44.9399 274.6 50.7099 287.22 72.7599" fill="#1A1A1A"/>
</g>
<mask id="mask2_571_1641" style="mask-type:luminance" maskUnits="userSpaceOnUse" x="3" y="44" width="293" height="172">
<path d="M3.86987 127.55C7.18987 135.06 12.9599 141.68 20.8699 147.18C28.9299 152.81 39.1799 157.26 51.2499 160.31C64.938 163.601 78.9826 165.177 93.0599 165C109.939 164.867 126.761 163.027 143.27 159.51C164.11 155.195 184.382 148.483 203.68 139.51C221.85 131.01 237.68 120.97 250.41 110.14C262.89 99.5099 272.23 88.2099 277.78 76.9399C283.19 65.9399 284.97 55.0699 282.6 44.8799L294.26 95.0999C296.72 105.69 295.17 116.92 290.09 128.15C284.89 139.67 276.03 151.15 264.09 161.83C251.96 172.73 236.79 182.75 219.34 191.14C200.837 199.978 181.312 206.495 161.21 210.54C145.228 213.84 128.938 215.412 112.62 215.23C98.8434 215.127 85.1386 213.235 71.8499 209.6C60.0699 206.27 49.9999 201.49 41.9999 195.55C34.1599 189.73 28.3499 182.81 24.8999 174.99L3.86987 127.55Z" fill="white"/>
</mask>
<g mask="url(#mask2_571_1641)">
<path d="M291.49 83.2295C291.78 84.5395 292 85.8495 292.16 87.2295C292.32 88.6095 292.43 89.8895 292.47 91.2295C292.51 92.5695 292.47 93.9395 292.4 95.2995C292.33 96.6595 292.18 98.0495 291.98 99.4295L290.73 94.1195C290.88 93.1195 290.99 92.1195 291.08 91.1995C291.17 90.2795 291.22 89.2695 291.24 88.3095C291.26 87.3495 291.24 86.3995 291.24 85.4495C291.24 84.4995 291.13 83.5595 291.04 82.6195L286.84 64.5595C286.84 64.1795 286.76 63.7995 286.71 63.4195C286.66 63.0395 286.6 62.6595 286.54 62.2795C286.48 61.8995 286.42 61.5195 286.35 61.1495C286.28 60.7795 286.2 60.3995 286.12 60.0195L291.51 83.2695" fill="#1A1A1A"/>
<path d="M290.73 94.0797L291.98 99.3897C292.18 98.0097 292.32 96.6297 292.4 95.2597C292.48 93.8897 292.51 92.5397 292.47 91.1897C292.43 89.8397 292.33 88.5097 292.16 87.1897C291.99 85.8697 291.78 84.5497 291.49 83.1897L286.1 59.9997C286.18 60.3797 286.25 60.7497 286.33 61.1297C286.41 61.5097 286.46 61.8797 286.52 62.2597C286.58 62.6397 286.64 63.0197 286.69 63.3997C286.74 63.7797 286.78 64.1597 286.82 64.5397L291.02 82.5997C291.11 83.5397 291.18 84.4797 291.22 85.4297C291.26 86.3797 291.22 87.3297 291.22 88.2897C291.22 89.2497 291.14 90.2197 291.06 91.1797C290.98 92.1397 290.86 93.1197 290.71 94.0997M291.52 83.4497C291.837 84.8129 292.084 86.1913 292.26 87.5797C292.427 88.9664 292.537 90.3664 292.59 91.7797C292.59 93.1997 292.59 94.6197 292.52 96.0497C292.45 97.4797 292.27 98.9297 292.05 100.38L291.99 100.25L290.5 93.9097C290.65 92.9097 290.78 91.9697 290.87 90.9997C290.96 90.0297 291.03 89.0697 291.06 88.1097C291.09 87.1497 291.06 86.1897 291.06 85.2397C291.06 84.2897 290.97 83.3497 290.89 82.4097L286.68 64.3297C286.68 63.8697 286.59 63.4197 286.54 62.9697C286.49 62.5197 286.42 62.0797 286.35 61.6297C286.28 61.1797 286.2 60.7397 286.11 60.2897C286.02 59.8397 285.93 59.4097 285.83 58.9697L291.51 83.4497" fill="#1A1A1A"/>
<path d="M283.84 92.8295C284.1 96.9095 284.35 100.76 284.63 106.71C284.92 106.1 285.2 105.489 285.46 104.889C285.72 104.289 285.99 103.68 286.24 103.07C286.49 102.46 286.72 101.859 286.94 101.259C287.16 100.659 287.38 100.049 287.58 99.4495C285.97 96.5395 285.58 95.7995 283.84 92.8295ZM291.84 100.46C291.77 100.87 291.7 101.279 291.62 101.689C291.54 102.099 291.45 102.509 291.36 102.919C291.27 103.329 291.18 103.74 291.08 104.16C290.98 104.58 290.87 104.979 290.76 105.389C290.32 104.539 289.76 103.39 289.29 102.57C289.03 103.46 288.73 104.35 288.42 105.24C288.11 106.13 287.77 107.029 287.42 107.919C287.07 108.809 286.67 109.709 286.26 110.609C285.85 111.509 285.42 112.409 284.96 113.309C285.03 115.119 285.12 117.529 285.18 119.309L284.45 120.649L283.68 121.99C283.42 122.43 283.16 122.88 282.88 123.32C282.6 123.76 282.33 124.22 282.05 124.66C282.05 116.43 281.96 106.429 281.32 91.8995C281.59 91.3395 281.85 90.7895 282.11 90.2295C282.37 89.6695 282.6 89.1095 282.83 88.5595C283.06 88.0095 283.29 87.4395 283.5 86.8895C283.71 86.3395 283.92 85.7795 284.11 85.2295C289.42 94.8995 291.85 100.419 291.85 100.429" fill="#1A1A1A"/>
<path d="M284.17 94.2498C284.4 97.8298 284.58 100.65 284.82 105.34C285.05 104.86 285.27 104.34 285.48 103.89C285.69 103.44 285.89 102.89 286.09 102.44C286.29 101.99 286.48 101.44 286.66 100.99C286.84 100.54 287.02 99.9898 287.19 99.5398C286.24 97.8498 285.49 96.5398 284.19 94.2498M287.6 99.4498C287.4 100.05 287.19 100.66 286.96 101.26C286.73 101.86 286.5 102.47 286.26 103.07C286.02 103.67 285.75 104.28 285.48 104.89C285.21 105.5 284.94 106.1 284.65 106.71C284.45 102.63 284.25 98.7798 283.86 92.8298C285.58 95.8298 285.99 96.5398 287.6 99.4498ZM284.94 113.31C285.4 112.41 285.83 111.51 286.24 110.61C286.65 109.71 287.03 108.82 287.4 107.92C287.77 107.02 288.1 106.13 288.4 105.24C288.7 104.35 289.01 103.46 289.27 102.57C289.72 103.41 290.27 104.57 290.74 105.39C290.85 104.98 290.96 104.57 291.06 104.16C291.16 103.75 291.25 103.33 291.34 102.92C291.43 102.51 291.52 102.1 291.6 101.69C291.68 101.28 291.75 100.87 291.82 100.46C290.08 96.7299 287.9 92.1698 284.08 85.2598C283.89 85.8098 283.68 86.3598 283.47 86.9198C283.26 87.4798 283.03 88.0298 282.8 88.5898C282.57 89.1498 282.33 89.6998 282.08 90.2598C281.83 90.8198 281.56 91.3698 281.29 91.9298C281.64 100.14 282.01 110.11 282.02 124.69C282.3 124.25 282.58 123.8 282.85 123.35C283.12 122.9 283.39 122.46 283.65 122.02L284.42 120.68L285.15 119.34C285.09 117.53 284.54 115.08 284.93 113.34M292.08 100.39C292 100.88 291.92 101.39 291.83 101.87C291.74 102.35 291.64 102.87 291.54 103.34C291.44 103.81 291.32 104.34 291.2 104.83C291.08 105.32 290.95 105.83 290.81 106.31L289.34 103.49C289.08 104.34 288.8 105.18 288.5 106.03C288.2 106.88 287.88 107.72 287.5 108.57C287.12 109.42 286.8 110.27 286.41 111.13C286.02 111.99 285.62 112.83 285.19 113.68C285.26 115.49 285.35 117.9 285.41 119.68L284.55 121.28C284.25 121.81 283.95 122.34 283.63 122.87C283.31 123.4 283 123.94 282.63 124.47C282.26 125 281.97 125.53 281.63 126.07C281.63 113.2 281.47 104.17 280.95 91.5598C281.24 90.9498 281.53 90.3498 281.8 89.7498C282.07 89.1498 282.34 88.5398 282.59 87.9398C282.84 87.3398 283.08 86.7398 283.31 86.1398C283.54 85.5398 283.76 84.9398 283.96 84.3398C286.74 89.4298 289.04 93.8598 291.96 100.23L292.02 100.36" fill="#1A1A1A"/>
<path d="M281.09 126.11C280.82 126.52 280.55 126.93 280.27 127.34L279.41 128.57L278.53 129.8L277.61 131.03L273.48 114.47C271.7 124.16 270.24 131.23 267.2 142.97C266.79 143.38 266.38 143.79 265.96 144.19L264.7 145.42C264.28 145.82 263.85 146.23 263.41 146.63C262.97 147.03 262.54 147.44 262.1 147.84L255.79 123.93L257.1 122.75L258.38 121.57L259.64 120.38L260.87 119.2L265.01 135.2C267.01 127.37 268.85 119.92 271.01 108.06C271.39 107.59 271.76 107.06 272.12 106.64C272.48 106.22 272.85 105.69 273.2 105.21C273.55 104.73 273.89 104.26 274.2 103.79L275.2 102.36L281.06 126.15" fill="#1A1A1A"/>
<path d="M273.48 114.47L277.61 131L278.53 129.77L279.41 128.54L280.27 127.31C280.55 126.9 280.82 126.49 281.09 126.08L275.23 102.29L274.23 103.72C273.89 104.19 273.55 104.67 273.23 105.14C272.91 105.61 272.52 106.14 272.15 106.57C271.78 107 271.42 107.57 271.04 107.99C269.85 114.37 268.37 122.31 265.04 135.13L260.9 119.13L259.67 120.31L258.41 121.5L257.13 122.68L255.82 123.86L262.13 147.77C262.57 147.37 263.01 146.97 263.44 146.56C263.87 146.15 264.31 145.75 264.73 145.35L265.99 144.12C266.41 143.72 266.82 143.31 267.23 142.9C269.72 133.22 271.38 126.15 273.51 114.4M281.57 126.21L280.57 127.67C280.24 128.15 279.91 128.67 279.57 129.12C279.23 129.57 278.88 130.12 278.57 130.58L277.48 132.03L273.56 116.35C272.38 122.71 270.9 130.62 267.56 143.35L266.17 144.73C265.71 145.19 265.23 145.65 264.75 146.11L263.3 147.47L261.81 148.84L255.15 123.64L256.71 122.25C257.22 121.79 257.71 121.33 258.23 120.86L259.72 119.46L261.17 118.05L265.08 133.15C266.48 127.59 268.6 119.15 270.73 107.49C271.15 106.97 271.56 106.44 271.96 105.91C272.36 105.38 272.77 104.86 273.15 104.33C273.53 103.8 273.92 103.33 274.3 102.75L275.39 101.17L281.56 126.22" fill="#1A1A1A"/>
<path d="M240.79 142C234.13 146.77 231.94 150.4 232.99 155L233.05 155.2C234.58 159.63 238.23 159.73 244.54 155.52L246.4 154.2C247.02 153.75 247.63 153.31 248.23 152.86L250.03 151.52L251.79 150.17L248.12 136.68L246.34 138L244.52 139.35C243.91 139.79 243.3 140.24 242.67 140.68L240.79 142ZM258.9 150.67C257.9 151.56 256.8 152.45 255.72 153.33C254.64 154.21 253.54 155.09 252.41 155.96C251.28 156.83 250.14 157.69 248.98 158.54C247.82 159.39 246.63 160.25 245.42 161.09C235.36 168.02 227.96 167.56 225.64 159.86L225.35 158.86C223.35 151.6 227.49 144.86 238.78 137.12C240.013 136.28 241.223 135.433 242.41 134.58C243.596 133.726 244.763 132.866 245.91 132C247.05 131.13 248.17 130.26 249.28 129.38C250.39 128.5 251.46 127.62 252.52 126.74L258.9 150.66" fill="#1A1A1A"/>
<path d="M241 142.64C234.68 147.16 232.68 150.39 233.65 154.64L233.7 154.83C235.1 158.9 238.4 158.92 244.4 154.91L246.12 153.69L247.81 152.46L249.47 151.22L251.11 149.98L247.78 137.76L246.1 139L244.42 140.24L242.71 141.47L241 142.64ZM251.82 150.14L250 151.49L248.2 152.83C247.6 153.28 246.99 153.72 246.37 154.17L244.51 155.49C238.2 159.7 234.51 159.6 233.02 155.17L233 155C231.95 150.43 234.14 146.8 240.8 142L242.68 140.68C243.31 140.24 243.92 139.79 244.53 139.35L246.35 138L248.13 136.65L251.8 150.14M238.8 137.14C227.46 144.95 223.32 151.66 225.37 158.88L225.66 159.88C227.98 167.58 235.38 168.04 245.44 161.11C246.65 160.27 247.83 159.42 249 158.56C250.17 157.7 251.31 156.85 252.43 155.98C253.55 155.11 254.66 154.23 255.74 153.35C256.82 152.47 257.88 151.58 258.92 150.69L252.54 126.77C251.48 127.65 250.4 128.54 249.3 129.41C248.2 130.28 247.07 131.16 245.93 132.03C244.79 132.9 243.61 133.76 242.43 134.61C241.25 135.46 240.03 136.31 238.8 137.15M259.58 150.89C258.513 151.823 257.416 152.746 256.29 153.66C255.163 154.573 254.023 155.483 252.87 156.39C251.7 157.3 250.52 158.2 249.31 159.09C248.1 159.98 246.87 160.86 245.62 161.74C235.32 168.83 227.42 168.26 225 160.24L224.71 159.24C222.59 151.59 226.88 144.57 238.62 136.49C239.9 135.62 241.16 134.73 242.39 133.85C243.62 132.97 244.83 132.06 246.02 131.16C247.21 130.26 248.37 129.35 249.51 128.44C250.65 127.53 251.77 126.61 252.87 125.68L259.58 150.88" fill="#1A1A1A"/>
<path d="M225.83 173.15L223.97 174.15C223.35 174.48 222.73 174.81 222.1 175.15L220.2 176.15L218.29 177.15L211.08 153.25L213.03 152.25L214.96 151.25L216.87 150.25C217.51 149.92 218.14 149.59 218.76 149.25L225.83 173.17" fill="#1A1A1A"/>
<path d="M211.08 153.15L218.29 177.05L220.2 176.05L222.1 175.05C222.73 174.73 223.35 174.4 223.97 174.05L225.83 173.05L218.76 149.13C218.14 149.47 217.51 149.8 216.87 150.13L214.96 151.13L213.03 152.13L211.08 153.13M226.67 173.39C225.95 173.79 225.22 174.18 224.49 174.57L222.28 175.73L220.05 176.87L217.79 178L210.18 152.83L212.49 151.7L214.77 150.56L217 149.4L219.23 148.22L226.65 173.41" fill="#1A1A1A"/>
<path d="M213.66 179.28L211.66 180.18L209.66 181.06L207.66 181.94L205.66 182.79L200.48 166.21C195.48 174.67 191.73 180.74 185.17 190.45L182.96 191.15L180.73 191.85L178.49 192.52L176.24 193.17L168.24 169.45L170.47 168.8L172.69 168.13L174.9 167.45L177.09 166.75L182.32 182.63C186.65 176.12 190.72 169.89 196.8 159.51L199.19 158.51L201.56 157.51L203.91 156.51L206.23 155.45L213.53 179.34" fill="#1A1A1A"/>
<path d="M200.59 166.21L205.77 182.79L207.77 181.94L209.77 181.06L211.77 180.18L213.77 179.28L206.47 155.39L204 156.45L201.65 157.45L199.28 158.45L196.89 159.45C193.61 165.02 189.52 171.94 182.41 182.57L177.18 166.69L174.99 167.39L172.78 168.07L170.56 168.74L168.33 169.39L176.33 193.11L178.58 192.46L180.82 191.79L183.05 191.09L185.26 190.39C190.66 182.39 194.51 176.39 200.57 166.15M214.57 179.51L212.27 180.57C211.5 180.93 210.73 181.28 209.95 181.62L207.6 182.62L205.24 183.62L200.32 168C197.03 173.53 192.92 180.41 185.81 190.92L183.32 191.72L180.82 192.49L178.29 193.25L175.76 193.98L167.34 168.98L169.98 168.22L172.61 167.44L175.22 166.63L177.81 165.8L182.75 180.8C185.81 176.16 190.43 169.16 196.42 158.92L199.08 157.81C199.96 157.43 200.84 157.06 201.71 156.67L204.31 155.52L206.88 154.34L214.56 179.5" fill="#1A1A1A"/>
<path d="M151.58 199.4H151.36H151.13H150.9H150.68C143.83 200.58 138.35 199.97 134.39 197.58L133.82 197.21C133.55 198.587 133.55 200.003 133.82 201.38L132.55 201.51L131.3 201.64L130.04 201.76L128.79 201.87L124 189.29C125.74 189.13 127.49 188.95 129.24 188.76C130.99 188.57 132.77 188.34 134.55 188.11C136.33 187.88 138.13 187.61 139.93 187.33C141.73 187.05 143.54 186.74 145.35 186.42L146.77 190.42L143.63 190.95C142.63 191.13 141.55 191.29 140.51 191.45L137.41 191.9L134.32 192.31L134.46 192.68C136.32 195.98 155.81 196.68 158.69 188.26C159.038 187.246 159.038 186.144 158.69 185.13L158.56 184.77C154.77 175.6 135.1 181.3 133.28 184.87C133.153 185.153 133.056 185.448 132.99 185.75L130.55 186.06L128.13 186.34L125.72 186.6L123.32 186.83C121.64 179.83 131.14 177.14 140.66 175.42L141.12 175.34L141.59 175.26L142.06 175.17L142.53 175.09C151.83 173.41 164.6 172.31 168.09 182.04L168.4 182.95C170.34 189.06 166.93 196.6 151.58 199.44" fill="#1A1A1A"/>
<path d="M133.82 197.38C140.07 201.38 148.05 200.02 150.68 199.57H150.9H151.13H151.36H151.58C166.92 196.68 170.33 189.16 168.4 183.08L168.09 182.17C164.6 172.44 151.83 173.54 142.53 175.22L142.06 175.3L141.59 175.39L141.12 175.47L140.66 175.55C131.14 177.27 121.66 179.96 123.32 186.96L125.72 186.73L128.13 186.47L130.55 186.19L132.99 185.88C134.25 180.68 153.69 177.04 157.8 183.33C158.097 183.831 158.351 184.356 158.56 184.9L158.69 185.26C161.28 193.65 142.83 197.6 135.56 193.76C135.103 193.57 134.721 193.236 134.47 192.81L134.33 192.44L137.42 192.03L140.52 191.58C141.52 191.42 142.6 191.26 143.64 191.08L146.78 190.55L145.36 186.55C143.55 186.87 141.74 187.18 139.94 187.46C138.14 187.74 136.35 188 134.56 188.24C132.77 188.48 131.01 188.69 129.25 188.89C127.49 189.09 125.75 189.26 124.01 189.42L128.78 202L130.03 201.89L131.29 201.77L132.54 201.64L133.81 201.51C133.573 200.307 133.546 199.072 133.73 197.86L133.82 197.34M151.82 199.98H151.6H151.37H151.14H150.92C148.47 200.4 141.04 201.69 134.6 198.4C134.414 199.465 134.448 200.558 134.7 201.61L134.76 201.88L133.12 202.06L131.49 202.22L129.86 202.37L128.25 202.51L123.01 188.51C124.87 188.35 126.747 188.166 128.64 187.96C130.54 187.75 132.44 187.52 134.36 187.26C136.28 187 138.2 186.72 140.14 186.42C142.08 186.12 144.03 185.78 145.99 185.42L147.85 190.62L144.74 191.16C143.74 191.34 142.67 191.5 141.64 191.66C140.61 191.82 139.59 191.98 138.57 192.12L135.51 192.54C140.51 196.25 159.03 193.73 158.1 186C158.054 185.661 157.981 185.326 157.88 185L157.75 184.63C154.14 175.89 135.32 182.11 134.05 184.94C133.942 185.202 133.868 185.478 133.83 185.76V185.99L131.14 186.33L128.47 186.65L125.81 186.93L123.18 187.18H122.74C120.28 179.23 130.32 176.29 140.47 174.46L140.93 174.38L141.4 174.3L141.87 174.21L142.34 174.13C148.52 173.01 164.96 170.05 168.95 181.5L169.26 182.41C171.26 188.85 167.79 196.78 151.84 199.74" fill="#1A1A1A"/>
<path d="M107.8 203.869C90.3197 203.189 87.7097 193.479 90.4397 191.039C92.3497 189.339 97.1497 188.909 101.9 188.619C117.83 187.619 108.75 183.489 102.74 183.279C94.2697 182.989 91.7397 184.949 90.6297 185.789L85.7097 181.789C93.4597 175.789 118.71 178.579 118.14 187.679C117.82 192.679 107.23 193.399 103.25 193.679C89.4897 194.619 98.6497 198.569 101.25 199.039C102.32 199.229 111.9 200.779 117.41 196.219C117.75 195.939 118.17 195.529 118.48 195.219C120.07 196.219 122.2 197.629 123.81 198.649C122.36 199.989 117.96 204.079 107.81 203.899" fill="#1A1A1A"/>
<path d="M80.3198 200.72L78.9197 200.47L77.5297 200.21L76.1598 199.94L74.7897 199.66L67.0498 180.93L64.4597 180.38C63.5997 180.19 62.7597 180 61.9197 179.79L59.4297 179.17C58.6097 178.95 57.7897 178.73 56.9897 178.5L54.9897 173.84C56.9897 174.413 59.0731 174.943 61.2397 175.43C63.4064 175.917 65.5964 176.36 67.8097 176.76C70.0497 177.16 72.3397 177.517 74.6797 177.83C77.0297 178.15 79.4197 178.41 81.8597 178.64L83.7597 183.35C82.7597 183.27 81.8397 183.17 80.8997 183.07L78.0798 182.73C77.1498 182.62 76.2297 182.49 75.3097 182.36C74.3897 182.23 73.4897 182.09 72.5897 181.94L80.2797 200.72" fill="#1A1A1A"/>
<path d="M50.8598 192.53C48.5698 191.38 41.6198 187.88 36.1298 175.82L30.8198 163.6L31.7498 164.16L32.6898 164.71L33.6898 165.26L34.6898 165.79L39.8198 177.65C44.3698 187.65 52.0598 190.37 53.0998 187.72C53.5898 186.46 52.7398 184.32 52.3298 183.3L47.2498 171.3L48.4198 171.71L49.6098 172.12L50.8198 172.52L52.0398 172.9L57.2698 185.29C61.0398 195.01 55.0498 194.39 50.9198 192.49" fill="#1A1A1A"/>
<path d="M21.9998 159.79C20.5198 158.38 19.2998 157.3 19.3798 158.37C19.4298 159.14 22.6298 168.08 28.1098 173.69L28.9898 174.54C29.2898 174.82 29.5898 175.1 29.8998 175.37L30.8298 176.2L31.8298 177.01L25.7198 163.07C25.3898 162.81 25.0698 162.54 24.7198 162.27L23.7898 161.46L22.8798 160.63C22.5798 160.35 22.2898 160.08 21.9998 159.79ZM36.9998 183.92C36.3498 183.44 35.7098 182.92 35.0798 182.46C34.4498 182 33.8498 181.46 33.2498 180.96C32.6498 180.46 32.0698 179.96 31.5098 179.42C30.9498 178.88 30.3898 178.37 29.8598 177.84C22.7298 170.34 15.5998 153.66 16.4198 152.48C16.9598 152.42 17.7598 153.09 19.8598 155.11C20.3998 155.64 20.9498 156.11 21.5098 156.66C22.0698 157.21 22.6598 157.66 23.2498 158.16C23.8398 158.66 24.4598 159.16 25.0898 159.63C25.7198 160.1 26.3598 160.63 27.0198 161.05L37.0198 183.92" fill="#1A1A1A"/>
<path d="M21.6298 167.19L21.1898 166.4L20.7798 165.61L20.3798 164.81L19.9998 164L10.0698 141.56L10.4398 142.35L10.8298 143.14L11.2398 143.92L11.6698 144.69L21.6698 167.19" fill="#1A1A1A"/>
</g>
</svg>
