<svg width="1563" height="329" viewBox="0 0 1563 329" fill="none" xmlns="http://www.w3.org/2000/svg">
<path d="M575.294 51.8984H610.821V124.67H689.647V148.749H575.276L575.294 51.8984Z" fill="#1A1A1A"/>
<path d="M818.778 148.749L808.056 131.048H739.344L729.176 148.749H692.989L750.317 51.8984H796.369L857.039 148.749H818.778ZM794.993 109.166L773.03 72.8494L751.997 109.166H794.993Z" fill="#1A1A1A"/>
<path d="M862.382 51.8984H902.018L974.447 112.813V51.8984H1009.51V148.749H974.447L897.443 84.5685V148.749H862.382V51.8984Z" fill="#1A1A1A"/>
<path d="M1025.98 148.749V51.8984H1101.15C1110.72 51.8323 1120.28 52.4396 1129.74 53.7143C1137.14 54.63 1144.35 56.4064 1151.18 58.994C1156.4 61.0277 1161.32 63.5892 1165.82 66.6236C1169.67 69.2232 1172.83 72.4825 1175.11 76.1911C1177.15 79.5162 1178.71 83.0351 1179.78 86.6743C1180.77 90.2801 1181.25 93.973 1181.22 97.6762V101.583C1181.28 105.968 1180.68 110.342 1179.44 114.599C1177.99 119.128 1175.57 123.387 1172.29 127.157C1168.53 131.587 1163.79 135.345 1158.33 138.22C1151.13 141.81 1143.28 144.362 1135.1 145.773C1124.03 147.844 1112.73 148.827 1101.4 148.703L1025.98 148.749ZM1061.56 74.8026V125.448H1098.47C1128.86 125.448 1144.05 117.117 1144.05 100.453V99.6752C1144.05 83.0833 1128.86 74.7924 1098.47 74.8026H1061.56Z" fill="#1A1A1A"/>
<path d="M1227.99 51.8984V148.749H1192.47V51.8984H1227.99Z" fill="#1A1A1A"/>
<path d="M1244.45 51.8984H1284.09L1356.52 112.813V51.8984H1391.58V148.749H1356.52L1279.58 84.5685V148.749H1244.45V51.8984Z" fill="#1A1A1A"/>
<path d="M1482.3 150.443H1479.09C1468.5 150.571 1457.94 149.477 1447.69 147.192C1439.89 145.544 1432.49 142.745 1425.82 138.922C1420.56 135.751 1416.03 131.778 1412.47 127.203C1409.28 123.269 1406.87 118.919 1405.32 114.324C1404.06 110.22 1403.42 105.994 1403.42 101.75V98.1034C1403.41 93.9658 1403.95 89.8403 1405.02 85.8045C1406.38 81.2924 1408.66 77.0173 1411.73 73.1698C1415.23 68.6282 1419.7 64.6974 1424.92 61.588C1431.76 57.7919 1439.32 55.0398 1447.26 53.4548C1458.05 51.1555 1469.15 50.0629 1480.27 50.2046H1486.88C1497.68 50.0917 1508.46 50.9613 1519.05 52.7987C1526.63 54.0111 1533.95 56.1868 1540.78 59.2534C1545.67 61.6109 1550.01 64.714 1553.59 68.4089C1556.45 71.2391 1558.68 74.4987 1560.15 78.0222C1561.21 80.9198 1561.85 83.9178 1562.06 86.9489V87.071H1524.23C1520.45 77.9154 1506.98 73.3376 1483.82 73.3376C1455.05 73.3376 1440.67 82.0608 1440.67 99.5072V100.911C1440.67 108.032 1444.2 114.136 1451.26 119.222C1458.33 124.309 1469.05 126.852 1483.43 126.852C1489.3 126.885 1495.17 126.492 1500.96 125.677C1505.3 125.125 1509.54 124.142 1513.61 122.747C1516.43 121.734 1519.11 120.47 1521.62 118.978C1523.33 118.013 1524.85 116.823 1526.12 115.453C1526.79 114.763 1527.21 113.928 1527.34 113.042V112.783H1482.91V94.4717H1562.79V148.764H1541.46C1540.75 143.578 1539.21 138.5 1536.88 133.673C1535.18 135.468 1533.24 137.082 1531.09 138.479C1527.97 140.47 1524.68 142.256 1521.24 143.82C1516.06 146.105 1510.52 147.73 1504.79 148.642C1497.38 149.898 1489.85 150.501 1482.3 150.443Z" fill="#1A1A1A"/>
<path d="M710.895 245.462C710.895 265.711 688.396 279.795 645.775 279.795C615.395 279.795 590.609 272.455 572.203 259.104L588 243.112C602.779 254.709 621.864 260.141 646.436 260.141C671.008 260.141 683.213 256.174 683.213 247.659C683.213 239.145 670.847 236.81 643.166 234.75C608.801 232.247 576.831 225.793 576.831 203.789C576.831 182.426 603.637 170.615 640.771 170.615C667.059 170.615 689.736 176.2 705.105 186.317L689.861 202.614C676.637 193.947 660.304 190.407 640.718 190.284C624.384 190.132 604.441 192.634 604.441 202.019C604.441 210.823 621.632 211.708 645.543 213.326C683.928 215.966 710.895 222.863 710.895 245.462Z" fill="#1A1A1A"/>
<path d="M849.247 194.099H796.672V276.499H769.17V194.099H716.935V173.85H849.175L849.247 194.099Z" fill="#1A1A1A"/>
<path d="M1001.2 173.85V228.143C1001.2 258.966 977.306 279.795 933.649 279.795C889.991 279.795 866.099 258.966 866.099 228.143V173.85H893.583V226.388C893.583 246.927 907.683 259.256 933.631 259.256C959.579 259.256 973.678 246.927 973.678 226.388V173.85H1001.2Z" fill="#1A1A1A"/>
<path d="M1169.63 225.213C1169.63 257.257 1140.57 276.575 1095.2 276.575H1031.27V173.85H1095.2C1140.57 173.85 1169.63 193.214 1169.63 225.213ZM1141.61 225.213C1141.61 204.079 1121.95 193.809 1093.14 193.809H1058.78V256.555H1093.14C1122.02 256.555 1141.61 246.347 1141.61 225.213Z" fill="#1A1A1A"/>
<path d="M1194.2 276.575V173.85H1221.7V276.575H1194.2Z" fill="#1A1A1A"/>
<path d="M1246.27 225.213C1246.27 190.864 1275.83 170.615 1322.76 170.615C1369.69 170.615 1399.31 190.941 1399.31 225.213C1399.31 259.485 1369.76 279.795 1322.85 279.795C1275.94 279.795 1246.27 259.607 1246.27 225.213ZM1371.22 225.213C1371.22 203.148 1352.49 190.941 1322.76 190.941C1293.02 190.941 1274.22 203.148 1274.22 225.213C1274.22 247.278 1292.86 259.607 1322.76 259.607C1352.66 259.607 1371.22 247.217 1371.22 225.213Z" fill="#1A1A1A"/>
<mask id="mask0_571_1639" style="mask-type:luminance" maskUnits="userSpaceOnUse" x="0" y="160" width="44" height="108">
<path d="M43.883 267.237L6.35527 194.847C4.99364 192.231 3.85881 189.533 2.95991 186.775C2.07691 184.009 1.42007 181.195 0.994156 178.352C0.580245 175.446 0.401126 172.519 0.458053 169.593C0.521943 166.558 0.820431 163.53 1.35157 160.529L37.8429 231.728C37.4242 234.828 37.2332 237.947 37.271 241.067C37.3083 244.101 37.5829 247.129 38.093 250.131C38.6027 253.08 39.343 255.996 40.309 258.859C41.273 261.719 42.4672 264.518 43.883 267.237Z" fill="white"/>
</mask>
<g mask="url(#mask0_571_1639)">
<path d="M14.3612 203.148C14.0395 199.852 14.522 198.57 15.8444 199.287C20.9018 202.171 27.4959 225.609 26.2807 229.699L25.9591 229.775C24.3865 228.478 15.4334 211.464 14.3612 203.148ZM29.4795 232.415C24.2793 195.549 13.3962 188.163 11.4305 190.696C6.37314 197.395 27.1206 235.757 29.6582 238.473H30.0156C30.1407 237.802 30.1943 237.496 29.4795 232.461" fill="#1A1A1A"/>
</g>
<mask id="mask1_571_1639" style="mask-type:luminance" maskUnits="userSpaceOnUse" x="1" y="0" width="525" height="232">
<path d="M504.456 68.7292L525.293 145.361C525.293 145.193 525.204 145.025 525.15 144.858C525.096 144.69 525.061 144.537 525.025 144.369L524.864 143.881C524.864 143.713 524.775 143.561 524.721 143.393C519.843 127.63 508.495 114.278 492.394 103.581C476.721 93.144 456.474 85.1787 433.153 79.8837C408.14 74.4535 382.404 71.8372 356.597 72.1015C327.261 72.3162 298.034 75.1857 269.407 80.662C240.183 86.1387 211.679 94.1137 184.326 104.466C159.222 113.894 135.417 125.664 113.345 139.563C92.4011 152.899 74.7988 167.594 61.8249 182.96C48.5651 198.692 40.0588 215.218 37.8429 231.79L1.35156 160.59C4.19295 144.552 13.4498 128.423 27.5495 113.027C41.3276 97.9812 59.8234 83.5002 81.6789 70.3009C104.778 56.5107 129.473 44.7811 155.376 35.2962C183.665 24.8452 213.034 16.6715 243.102 10.8814C272.496 5.1154 302.485 1.83914 332.633 1.10018C358.948 0.365149 385.269 2.41531 410.994 7.20389C434.833 11.8885 455.456 19.1977 471.378 28.9636C487.712 39.0042 499.149 51.6694 503.866 66.8065C503.866 66.9591 503.974 67.127 504.009 67.2796C504.045 67.4322 504.117 67.6 504.152 67.7526C504.188 67.9052 504.152 68.0578 504.295 68.2256C504.438 68.3935 504.42 68.5614 504.456 68.7292Z" fill="white"/>
</mask>
<g mask="url(#mask1_571_1639)">
<path d="M29.6761 212.303C30.0514 210.228 30.5339 208.168 31.1058 206.108C31.6776 204.048 32.3388 202.003 33.1072 200.004C33.8757 198.005 34.6977 195.93 35.627 193.901C36.5562 191.871 37.5748 189.857 38.6828 187.797L34.9836 180.427C34.1973 181.846 33.4468 183.265 32.7498 184.699C32.0529 186.134 31.3917 187.553 30.7841 188.987C30.1765 190.422 29.5868 191.871 28.9971 193.306C28.4073 194.74 27.9963 196.205 27.5674 197.639L14.6471 172.278C14.4506 172.858 14.2719 173.453 14.0932 174.048L13.6107 175.834C13.4498 176.429 13.3069 177.024 13.1639 177.619C13.0209 178.214 12.8958 178.825 12.7708 179.42L29.6761 212.303Z" fill="#1A1A1A"/>
<path d="M34.9836 180.488L38.6828 187.858C37.5748 189.873 36.5562 191.887 35.6269 193.962C34.6977 196.037 33.8399 198.021 33.1072 200.066C32.3745 202.111 31.6776 204.155 31.1057 206.169C30.5339 208.184 30.0514 210.289 29.6761 212.365L12.8422 179.481C12.9673 178.886 13.0924 178.291 13.2354 177.68C13.3783 177.07 13.5213 176.49 13.6821 175.895L14.1646 174.11C14.3433 173.515 14.522 172.92 14.7186 172.34L27.6389 197.701C28.0678 196.266 28.5503 194.817 29.0685 193.367C29.5868 191.917 30.1586 190.483 30.8556 189.049C31.5525 187.614 32.1243 186.18 32.8213 184.761C33.5182 183.342 34.2688 181.907 35.0551 180.488M29.9978 213.83C30.3671 211.663 30.8496 209.496 31.4453 207.329C32.035 205.178 32.7141 203.026 33.5182 200.875C34.3224 198.723 35.1802 196.602 36.163 194.481C37.1459 192.36 38.2181 190.239 39.3976 188.133L39.3082 187.736L34.9121 178.947C34.108 180.366 33.3574 181.785 32.6426 183.22C31.9278 184.654 31.2487 186.073 30.6232 187.507C29.9978 188.942 29.408 190.376 28.8362 191.811C28.2643 193.245 27.7997 194.71 27.353 196.159L14.4327 170.768C14.2004 171.47 13.9859 172.172 13.7715 172.859C13.557 173.545 13.3783 174.262 13.1996 174.964C13.0209 175.666 12.8422 176.368 12.6814 177.085C12.5205 177.803 12.3597 178.489 12.2346 179.191L29.962 213.83" fill="#1A1A1A"/>
<path d="M37.8787 143.301C40.9881 145.773 44.1869 148.337 49.0655 152.152C48.3329 152.96 47.6002 153.784 46.9032 154.608C46.2063 155.432 45.4915 156.256 44.8124 157.08C44.1333 157.904 43.4542 158.744 42.8109 159.583C42.1676 160.422 41.5064 161.246 40.8809 162.085C39.5228 153.922 39.0939 151.404 37.8787 143.301ZM39.5585 186.363C39.8802 185.768 40.2376 185.173 40.5771 184.593L41.6493 182.823L42.7752 181.068C43.1505 180.473 43.5257 179.893 43.9189 179.313L42.4356 171.119C43.3113 169.883 44.2227 168.632 45.1698 167.396C46.1169 166.16 47.0819 164.939 48.1005 163.703C49.1192 162.467 50.1199 161.261 51.1921 160.041C52.2643 158.82 53.3365 157.63 54.4445 156.424L59.4125 160.239L61.1995 158.454L62.9866 156.699C63.5763 156.104 64.1839 155.524 64.7736 154.929C65.3633 154.334 65.9888 153.769 66.5606 153.189C59.4125 148.016 50.7454 141.745 39.1117 132.849C38.4148 133.612 37.7357 134.375 37.0745 135.122L35.1088 137.411L33.2145 139.7C32.5891 140.463 31.9815 141.226 31.4275 142.004C33.2145 153.266 35.6092 166.907 39.6479 186.363" fill="#1A1A1A"/>
<path d="M38.8435 145.163C41.7921 147.528 43.9366 149.237 47.7787 152.243L45.9917 154.212C45.4198 154.868 44.8658 155.524 44.3297 156.195C43.7936 156.867 43.2396 157.523 42.7214 158.179L41.1488 160.193C40.3625 155.356 39.7549 151.541 38.7899 145.163M40.8271 162.04C41.4526 161.2 42.0959 160.361 42.7571 159.537C43.4183 158.713 44.0795 157.874 44.7586 157.035C45.4377 156.195 46.1346 155.387 46.8494 154.563C47.5642 153.739 48.2791 152.915 49.0117 152.106C45.527 149.374 42.5248 147.025 37.8249 143.255C39.0758 151.358 39.4868 153.937 40.8271 162.04ZM54.3907 156.317C53.2828 157.523 52.1927 158.728 51.1383 159.934C50.084 161.139 49.0475 162.375 48.0468 163.596C47.046 164.817 46.0632 166.053 45.116 167.289C44.1689 168.525 43.329 169.776 42.3818 171.012L43.8651 179.206C43.4719 179.786 43.0967 180.366 42.7214 180.961L41.5955 182.716L40.5233 184.486C40.1838 185.066 39.8264 185.661 39.5047 186.256C37.2352 175.254 34.5368 161.841 31.2843 141.897C31.8741 141.134 32.4817 140.371 33.0714 139.593L34.9656 137.304L36.9314 135.015C37.5926 134.252 38.2717 133.49 38.9686 132.742C43.7221 136.374 52.5858 143.133 66.4175 153.082C65.8099 153.662 65.1844 154.242 64.6305 154.822C64.0765 155.402 63.4153 155.997 62.8434 156.592L61.0564 158.347L59.2694 160.132L54.3014 156.317M39.3796 188.179C39.7728 187.477 40.1838 186.76 40.5948 186.058C41.0058 185.356 41.4347 184.639 41.8636 183.937C42.2925 183.235 42.7392 182.518 43.2039 181.816C43.6685 181.114 44.1153 180.412 44.5978 179.71L43.1145 171.531C43.9544 170.356 44.9016 169.181 45.7236 168.006C46.5456 166.831 47.5107 165.671 48.4935 164.496C49.4764 163.321 50.4235 162.177 51.4243 161.033C52.425 159.888 53.4615 158.728 54.5158 157.584L59.4659 161.383C60.1271 160.666 60.8062 159.964 61.5031 159.262C62.2001 158.56 62.8792 157.859 63.594 157.157C64.3088 156.455 65.0057 155.768 65.7384 155.066C66.4711 154.364 67.1859 153.678 67.9365 152.991C56.6781 144.903 49.0832 139.258 38.9329 131.628C38.1823 132.437 37.4496 133.261 36.7348 134.069C36.02 134.878 35.3052 135.717 34.6082 136.541L32.5531 139.013C31.8919 139.853 31.2307 140.677 30.5874 141.516C33.0356 156.165 35.3409 168.983 39.2903 187.843L39.3796 188.24" fill="#1A1A1A"/>
<path d="M68.4906 151.267C69.0624 150.733 69.6521 150.214 70.2776 149.741L72.0646 148.215L73.8517 146.689L75.6387 145.163L65.0059 122.793C72.3148 124.609 77.3185 125.845 95.3855 130.239L97.6014 128.713L99.8352 127.188L102.087 125.662L104.374 124.136L89.7027 92.0913L87.4332 93.5104L85.1815 94.9448L82.9656 96.3944L80.7675 97.9204L90.6677 119.283C80.6424 116.72 71.5286 114.385 61.6999 111.822L59.4661 113.622L57.2859 115.453L55.1235 117.284C54.4266 117.895 53.7118 118.505 53.0327 119.131L68.4906 151.267Z" fill="#1A1A1A"/>
<path d="M65.0594 122.61L75.6923 144.98L73.9053 146.506L72.1183 148.032L70.3312 149.558C69.7415 150.092 69.1518 150.611 68.5442 151.084L53.0863 118.871C53.7654 118.246 54.4802 117.635 55.1771 117.025L57.3394 115.194L59.5196 113.363L61.7534 111.562C68.1868 113.241 73.7444 114.69 90.7213 119.024L80.8211 97.6608L83.0192 96.1349L85.2351 94.6853L87.4868 93.2509L89.7563 91.8318L104.428 123.876L102.14 125.402L99.8888 126.928L97.655 128.454L95.4391 129.98C81.5895 126.592 75.7817 125.204 65.0594 122.533M68.2582 152.793C68.9373 152.152 69.6343 151.526 70.3312 150.9C71.0282 150.275 71.7251 149.649 72.422 149.024L74.5843 147.177L76.7645 145.315L66.7214 124.151C72.6186 125.677 77.7117 126.867 95.457 131.185L97.9409 129.492L100.443 127.813L102.998 126.15L105.589 124.502L90.1494 90.7637C89.2381 91.313 88.3624 91.8776 87.451 92.4422L84.7883 94.136C83.8948 94.7005 83.0013 95.2651 82.1614 95.845C81.3215 96.4248 80.3744 96.9894 79.5702 97.5693L88.9521 117.696C82.7869 116.17 71.2962 113.118 61.5747 110.631C60.7348 111.287 59.9128 111.959 59.0907 112.63L56.6604 114.644L54.2836 116.674L51.9604 118.734L68.2582 152.793Z" fill="#1A1A1A"/>
<path d="M120.029 83.7441C130.215 78.8154 136.112 79.2732 139.132 85.27L139.239 85.5295C141.509 91.6332 138.346 96.2109 128.017 101.796L125.032 103.322L122.066 104.848L119.153 106.45L116.222 108.113L108.109 90.0767L111.04 88.5508L113.989 87.0248C114.971 86.4908 115.972 85.972 116.973 85.4989L119.993 83.973M109.861 120.748C111.648 119.68 113.435 118.612 115.222 117.559C117.009 116.506 118.796 115.468 120.69 114.43C122.584 113.393 124.407 112.37 126.283 111.379C128.16 110.387 130.072 109.349 132.002 108.327C142.724 102.742 156.341 93.8152 150.891 80.8601L150.337 79.5325C145.905 69.4157 134.039 68.2712 117.795 76.3891C115.847 77.381 113.917 78.3881 111.987 79.441C110.057 80.4939 108.181 81.4705 106.304 82.4928C104.428 83.5152 102.569 84.5681 100.747 85.5447C98.9238 86.5213 97.0832 87.6505 95.2961 88.7187L109.861 120.763" fill="#1A1A1A"/>
<path d="M120.404 84.614C130.09 79.8989 135.397 80.2193 138.167 85.6974L138.274 85.9568C140.365 91.6028 137.47 95.6617 127.552 100.941C126.623 101.414 125.765 101.887 124.782 102.376L122.048 103.902L119.35 105.428L116.669 106.954L109.342 90.6262L112.041 89.1002C112.952 88.6119 113.828 88.1084 114.775 87.5743L117.527 86.0484L120.315 84.614M116.222 108.113L119.117 106.511L122.03 104.909L124.997 103.383L127.981 101.857C138.31 96.2873 141.473 91.7248 139.204 85.5906L139.096 85.3312C136.076 79.3496 130.161 78.8918 119.993 83.8053L116.973 85.3312C115.972 85.85 114.971 86.3688 113.988 86.8571L111.04 88.3831L108.109 89.909L116.222 108.113ZM117.759 76.313C134.003 68.1951 145.869 69.3395 150.301 79.4564L150.855 80.7839C156.216 93.7696 142.688 102.696 131.966 108.251C130.036 109.242 128.142 110.25 126.248 111.302C124.353 112.355 122.495 113.332 120.654 114.354C118.813 115.377 116.991 116.43 115.186 117.482C113.381 118.535 111.612 119.604 109.825 120.672L95.2603 88.6272C97.0473 87.5591 98.8344 86.5061 100.711 85.4533C102.587 84.4004 104.392 83.378 106.268 82.4014C108.145 81.4248 110.039 80.3567 111.951 79.3496C113.863 78.3424 115.811 77.3353 117.759 76.2977M109.378 122.075C111.165 120.946 113.041 119.848 114.918 118.749C116.794 117.65 118.67 116.552 120.6 115.483C122.53 114.415 124.443 113.332 126.408 112.279C128.374 111.226 130.34 110.189 132.341 109.151C139.489 105.458 158.235 95.6464 151.856 80.3872L151.302 79.0596C146.602 68.3781 134.253 67.0506 117.348 75.489C115.311 76.5113 113.309 77.549 111.308 78.5408C109.306 79.5327 107.341 80.6618 105.393 81.73C103.445 82.7981 101.533 83.8815 99.6207 84.9649C97.7085 86.0484 95.8322 87.1623 93.9736 88.2762L109.342 122.014" fill="#1A1A1A"/>
<path d="M162.346 94.1664L165.134 93.0067L167.957 91.8623L170.781 90.733L173.64 89.6191L160.183 57.5747L157.288 58.6886L154.411 59.833C153.446 60.1993 152.499 60.5808 151.552 60.9775L148.711 62.1372L162.346 94.1817" fill="#1A1A1A"/>
<path d="M160.183 57.6205L173.64 89.665L170.781 90.7789L167.957 91.9081L165.134 93.0525L162.346 94.2122L148.711 62.1678L151.552 61.0081C152.499 60.6114 153.446 60.2299 154.411 59.8637L157.288 58.7192L160.183 57.6053M161.702 95.4025L164.991 94.0444L168.297 92.6863L171.638 91.3587L175.016 90.0465L160.898 56.354L157.485 57.6816L154.072 59.0091L150.712 60.3672L147.353 61.7405L161.649 95.4177" fill="#1A1A1A"/>
<path d="M180.556 87.0098L183.415 85.9722L186.31 84.9193L189.223 83.8969L192.153 82.8898L182.986 60.6266C196.55 65.0975 206.217 68.3477 221.8 73.78L224.981 72.9255L228.198 72.0862L231.397 71.247L234.631 70.4382L222.122 38.3022L218.941 39.0957L215.76 39.9044L212.597 40.7437L209.452 41.583L217.94 62.9459C209.005 59.7873 199.034 56.2014 181.038 50.1282L177.553 51.3031L174.087 52.4933L170.655 53.7141L167.242 54.9501L180.591 86.9946" fill="#1A1A1A"/>
<path d="M182.933 60.6265L192.1 82.8897L189.169 83.8968L186.256 84.9192L183.361 85.9721L180.502 87.0097L167.153 54.9653L170.566 53.7292L173.997 52.5085L177.464 51.3183L180.949 50.1434C191.492 53.714 202.25 57.3762 217.851 62.9611L209.363 41.5982L212.508 40.7589L215.671 39.9196L218.852 39.1109L222.033 38.3174L234.542 70.4534L231.308 71.2622L228.109 72.1014L224.892 72.9407L221.711 73.7952C208.88 69.3242 199.373 66.0587 182.897 60.6417M179.769 88.261L183.165 87.0097L186.578 85.7737L190.009 84.5682L193.476 83.378L184.809 62.2897C195.728 65.8909 206.021 69.3242 221.586 74.7718L225.16 73.7952L228.734 72.8491L232.308 71.9183L235.882 71.018L222.694 37.1577L218.906 38.1038L215.153 39.0651L211.418 40.0417L207.701 41.0488L215.743 61.3131C207.951 58.5359 197.265 54.7364 180.86 49.1972L177 50.4943L173.157 51.8218L169.333 53.1799L165.562 54.5533L179.626 88.261" fill="#1A1A1A"/>
<path d="M270.551 63.48H270.873H271.194H271.534H271.855C275.662 62.8086 287.242 60.7639 291.316 54.6754L291.727 54.0345C293.408 55.6104 294.816 57.3831 295.909 59.299L297.696 59.07L299.483 58.8412L301.27 58.6428L303.057 58.4292L296.713 40.7132L289.047 41.6287C286.491 41.9644 283.918 42.3001 281.327 42.6816C278.736 43.0631 276.162 43.4293 273.553 43.8413C270.944 44.2533 268.335 44.6806 265.726 45.1384L267.745 50.5707L272.266 49.8077L276.788 49.0905L281.273 48.4191L285.991 47.5035L286.187 48.0224C286.956 52.6001 261.937 60.7944 251.59 54.1261C249.979 53.1345 248.773 51.7362 248.141 50.1281L247.963 49.6398C243.71 36.0744 273.106 34.2585 279.289 37.4324C280.03 37.824 280.704 38.3016 281.291 38.8515L284.865 38.3633L288.439 37.9055L292.013 37.463L295.587 37.0509C293.282 32.4732 285.776 25.3471 261.508 29.4213L260.829 29.5434L260.168 29.6502L259.489 29.7723L258.81 29.8944C239.26 33.465 230.217 41.6287 234.203 52.2797L234.685 53.5157C237.509 60.4129 246.086 67.7221 270.801 63.4495" fill="#1A1A1A"/>
<path d="M291.727 53.8057C287.438 60.5045 276.913 62.3508 271.855 63.2511H271.534H271.194H270.872H270.551C245.675 67.5085 237.169 60.1993 234.435 53.3173L233.952 52.0814C230.039 41.3999 239.01 33.2667 258.56 29.696L259.239 29.574L259.918 29.4519L260.579 29.3451L261.258 29.223C285.616 25.1487 293.067 32.2748 295.337 36.8526L291.763 37.2646L288.189 37.7071L284.615 38.1649L281.041 38.6532C274.196 32.5495 247.766 36.639 247.087 46.1455C247.08 47.2676 247.273 48.3842 247.659 49.4568L247.838 49.9451C252.698 61.4505 281.112 55.6368 285.526 49.2279C285.847 48.8145 285.974 48.3137 285.884 47.824L285.991 47.5036L281.523 48.1445L277.038 48.8158L272.517 49.533L267.995 50.296L265.976 44.8637C268.585 44.4059 271.194 43.9787 273.803 43.5667C276.412 43.1547 279.003 42.7732 281.577 42.407C284.15 42.0408 286.741 41.6898 289.297 41.3541L296.963 40.4385L303.254 58.1851L301.467 58.3987L299.68 58.597L297.892 58.826L296.105 59.0548C295.154 57.3782 293.953 55.8138 292.531 54.4007L291.906 53.7904M270.872 64.2888H271.194H271.516H271.837H272.159C278.95 63.0985 287.331 61.0538 291.817 55.8657C292.817 56.0793 294.962 59.833 294.98 59.8788L295.158 60.2451L297.553 59.9399L299.948 59.6652C300.734 59.5584 301.538 59.4821 302.324 59.3905L304.701 59.1311L297.749 39.6908C295.015 39.996 292.263 40.3164 289.511 40.6674C286.759 41.0184 283.971 41.3846 281.202 41.7814C278.432 42.1781 275.626 42.6053 272.82 43.0479C270.015 43.4904 267.209 43.9634 264.386 44.4517L267.048 51.593L271.534 50.8301L276.001 50.1129L280.451 49.4263L284.883 48.7853C282.095 54.889 254.789 60.3213 249.66 50.9827C249.517 50.7385 249.374 50.3876 249.267 50.1434L249.089 49.6399C245.121 37.0357 272.91 35.3725 278.7 38.4548C279.37 38.8246 279.972 39.2772 280.487 39.7977L280.737 40.0723L284.651 39.5382L288.528 39.0194L292.424 38.5464L296.284 38.0886L296.892 37.9818C292.692 28.7347 280.272 25.5455 260.937 28.8263L260.257 28.9483L259.596 29.0551L258.917 29.1772L258.238 29.2993C229.377 34.579 230.825 47.5188 232.773 52.829L233.273 54.065C236.258 61.3132 245.193 69.0039 270.801 64.5634" fill="#1A1A1A"/>
<path d="M335.653 57.2237C368.212 55.3162 350.574 40.3469 350.36 40.2096C343.855 35.8912 332.079 35.7691 325.038 35.6318C317.568 35.5555 312.939 35.3877 312.028 32.9309C311.009 30.169 316.656 28.7346 322.303 28.3532C333.794 27.4834 340.084 30.4589 342.765 31.7254L346.339 26.3084C327.575 17.1528 297.821 22.6004 302.11 34.4416C304.683 41.5677 317.21 42.4374 329.809 42.7121C353.434 43.2309 344.731 49.2278 342.443 49.8229C342.3 49.8229 326.038 53.5004 312.064 47.3815L310.795 46.7863L306.792 52.478C315.79 56.2261 325.796 57.8539 335.778 57.1932" fill="#1A1A1A"/>
<path d="M377.88 56.4758L380.168 56.6131L382.437 56.781L384.707 56.9488L386.958 57.1319L378.238 30.0163L382.544 30.3672L386.815 30.7639L391.033 31.2065L395.214 31.6948L393.088 24.9044C389.514 24.4924 386.047 24.1109 382.455 23.7905C378.863 23.47 375.307 23.1954 371.554 22.9665C367.801 22.7376 364.156 22.5697 360.403 22.4476C356.65 22.3256 352.862 22.2493 349.02 22.2188L351.253 28.9328H355.757L360.242 29.0396L364.674 29.1922L369.088 29.3906L377.88 56.43" fill="#1A1A1A"/>
<path d="M429.615 64.5328C438.443 66.2724 446.967 66.1961 443.375 52.3254L437.889 33.938L436.102 33.3887L434.208 32.8546L432.313 32.3358L430.383 31.8322L435.745 49.594C439.622 64.1666 422.556 56.0182 422.378 55.9419C419.912 54.6941 417.762 53.0394 416.053 51.0745C414.344 49.1096 413.11 46.8738 412.424 44.4974L406.973 26.8882L404.882 26.5525L402.756 26.2168L400.629 25.8964L398.485 25.6064L404.15 43.7345C405.844 48.8348 409.108 53.4542 413.602 57.112C418.097 60.7698 423.657 63.3323 429.704 64.5328" fill="#1A1A1A"/>
<path d="M463.193 49.3653C476.971 56.0946 479.956 71.2012 475.953 72.2541C474.076 72.7729 470.985 71.4149 469.341 70.7282L467.304 69.8126L465.248 68.8971L463.176 68.0121L461.067 67.1575L454.884 45.8709L456.992 46.7254L459.101 47.5799L461.156 48.465L463.193 49.3805M456.045 71.186L460.102 72.7119C461.442 73.2307 462.765 73.7648 464.069 74.2378C465.374 74.7109 466.678 75.3365 467.947 75.9011C469.216 76.4657 470.467 77.0303 471.718 77.6254C476.668 79.8532 488.283 85.0567 482.261 67.066C479.652 59.3143 473.969 48.7549 461.674 42.6512C460.423 42.0866 459.155 41.522 457.868 40.9879C456.581 40.4539 455.277 39.9045 453.972 39.462C452.668 39.0195 451.31 38.4396 449.969 37.9361C448.629 37.4325 447.235 36.9442 445.859 36.4102L456.045 71.1097" fill="#1A1A1A"/>
<path d="M492.608 89.9547L493.895 90.9008L495.146 91.8773L496.379 92.8692C496.79 93.1897 497.183 93.5254 497.576 93.8611L487.73 58.4138L486.514 57.4525L485.281 56.4912L484.012 55.5451L482.726 54.6143L492.608 89.9547Z" fill="#1A1A1A"/>
<path d="M504.206 80.2498C509.924 89.0697 513.945 106.191 513.659 107.457H513.356C507.19 102.788 496.683 76.786 501.132 77.198C501.543 77.198 502.49 77.6863 504.206 80.2498ZM512.659 111.165C515.572 115.514 515.857 115.865 516.501 116.46H516.858C517.323 108.83 503.402 65.8603 496.629 68.7749C496.54 68.7749 490.16 77.5795 512.712 111.226" fill="#1A1A1A"/>
</g>
<mask id="mask2_571_1639" style="mask-type:luminance" maskUnits="userSpaceOnUse" x="6" y="68" width="522" height="261">
<path d="M6.35522 194.832C12.2882 206.292 22.5994 216.393 36.7349 224.786C51.1384 233.377 69.4555 240.167 91.025 244.821C115.486 249.844 140.585 252.248 165.741 251.978C195.904 251.775 225.966 248.968 255.468 243.601C292.711 237.016 328.936 226.775 363.423 213.082C395.894 200.112 424.182 184.791 446.931 168.266C469.234 152.045 485.925 134.802 495.843 117.605C505.51 100.82 508.691 84.2328 504.456 68.6836L525.293 145.316C529.689 161.475 526.919 178.611 517.841 195.671C508.548 213.25 492.715 230.768 471.378 247.064C449.701 263.697 422.592 278.987 391.408 291.789C358.343 305.276 323.451 315.219 287.528 321.392C258.968 326.428 229.856 328.827 200.696 328.549C176.076 328.393 151.585 325.505 127.838 319.958C106.733 314.831 88.684 307.537 74.3877 298.473C60.3774 289.592 49.9947 279.033 43.8294 267.1L6.35522 194.832Z" fill="white"/>
</mask>
<g mask="url(#mask2_571_1639)">
<path d="M520.343 127.203C520.861 129.202 521.254 131.201 521.54 133.23C521.826 135.26 522.023 137.289 522.094 139.334C522.166 141.379 522.094 143.469 521.969 145.545C521.844 147.62 521.576 149.741 521.218 151.847L518.985 143.744C519.253 142.218 519.449 140.692 519.61 139.288C519.771 137.885 519.86 136.343 519.896 134.878C519.932 133.414 519.896 131.964 519.896 130.514C519.896 129.065 519.699 127.63 519.539 126.196L512.033 98.6377C512.033 98.0578 511.89 97.478 511.801 96.8981C511.711 96.3182 511.604 95.7384 511.497 95.1586C511.39 94.5787 511.282 93.9989 511.157 93.4343C511.032 92.8697 510.889 92.2898 510.746 91.71L520.378 127.188" fill="#1A1A1A"/>
<path d="M518.985 143.759L521.219 151.862C521.576 149.756 521.826 147.65 521.969 145.56C522.112 143.469 522.166 141.409 522.094 139.349C522.023 137.289 521.844 135.26 521.54 133.246C521.236 131.231 520.861 129.217 520.343 127.218L510.711 91.7558C510.854 92.3356 510.979 92.9002 511.122 93.4801C511.265 94.0599 511.354 94.6245 511.461 95.2044C511.569 95.7842 511.676 96.3641 511.765 96.9439C511.854 97.5238 511.926 98.1036 511.997 98.6835L519.503 126.242C519.664 127.676 519.789 129.11 519.86 130.56C519.932 132.01 519.86 133.459 519.86 134.924C519.86 136.389 519.717 137.869 519.574 139.334C519.431 140.799 519.217 142.294 518.949 143.79M520.397 127.539C520.963 129.619 521.404 131.722 521.719 133.841C522.029 135.967 522.225 138.103 522.309 140.25C522.309 142.417 522.309 144.583 522.184 146.765C522.058 148.947 521.737 151.16 521.344 153.373L521.236 153.174L518.574 143.5C518.842 141.974 519.074 140.54 519.235 139.059C519.396 137.579 519.521 136.114 519.574 134.65C519.628 133.185 519.574 131.72 519.574 130.27C519.574 128.821 519.414 127.386 519.271 125.952L511.747 98.363C511.747 97.6611 511.586 96.9745 511.497 96.2878C511.408 95.6011 511.283 94.9297 511.14 94.2431C510.997 93.5564 510.889 92.885 510.729 92.1983C510.568 91.5116 510.407 90.8555 510.228 90.1841L520.379 127.539" fill="#1A1A1A"/>
<path d="M506.672 141.852C507.136 148.078 507.583 153.953 508.084 163.032C508.602 162.101 509.102 161.17 509.567 160.255C510.031 159.339 510.514 158.408 510.961 157.477C511.407 156.547 511.818 155.631 512.212 154.716C512.605 153.8 512.998 152.869 513.355 151.954C510.478 147.513 509.781 146.384 506.672 141.852ZM520.968 153.495C520.843 154.12 520.718 154.746 520.575 155.372C520.432 155.997 520.271 156.623 520.11 157.249C519.949 157.874 519.789 158.5 519.61 159.141C519.431 159.782 519.235 160.392 519.038 161.018C518.252 159.721 517.251 157.966 516.411 156.714C515.923 158.067 515.404 159.426 514.856 160.789C514.302 162.147 513.695 163.52 513.069 164.878C512.444 166.236 511.729 167.61 510.996 168.983C510.264 170.356 509.495 171.73 508.673 173.103C508.798 175.865 508.959 179.542 509.066 182.258L507.762 184.303L506.386 186.348C505.921 187.019 505.457 187.706 504.956 188.377C504.456 189.049 503.973 189.751 503.473 190.422C503.473 177.864 503.312 162.605 502.168 140.433C502.651 139.578 503.116 138.739 503.58 137.885C504.045 137.03 504.456 136.176 504.867 135.336C505.278 134.497 505.689 133.627 506.064 132.788C506.439 131.949 506.815 131.094 507.154 130.255C516.643 145.011 520.986 153.434 520.986 153.449" fill="#1A1A1A"/>
<path d="M507.262 144.019C507.673 149.482 507.994 153.785 508.423 160.941C508.834 160.209 509.228 159.415 509.603 158.729C509.978 158.042 510.335 157.203 510.693 156.516C511.05 155.829 511.39 154.99 511.712 154.304C512.033 153.617 512.355 152.778 512.659 152.091C510.961 149.512 509.621 147.513 507.298 144.019M513.391 151.954C513.034 152.869 512.659 153.8 512.248 154.716C511.837 155.631 511.426 156.562 510.997 157.477C510.568 158.393 510.085 159.324 509.603 160.255C509.12 161.185 508.638 162.101 508.12 163.032C507.762 156.806 507.405 150.931 506.708 141.852C509.782 146.43 510.514 147.513 513.391 151.954ZM508.638 173.103C509.46 171.73 510.228 170.356 510.961 168.983C511.694 167.61 512.373 166.252 513.034 164.878C513.695 163.505 514.285 162.147 514.821 160.789C515.357 159.431 515.893 158.073 516.376 156.715C517.18 157.996 518.163 159.766 519.003 161.018C519.199 160.392 519.396 159.766 519.574 159.141C519.753 158.515 519.914 157.874 520.075 157.249C520.236 156.623 520.397 155.997 520.539 155.372C520.682 154.746 520.808 154.12 520.933 153.495C517.823 147.803 513.927 140.845 507.101 130.301C506.761 131.14 506.386 131.979 506.011 132.834C505.636 133.688 505.225 134.528 504.814 135.382C504.403 136.237 503.974 137.076 503.527 137.93C503.08 138.785 502.598 139.624 502.115 140.479C502.741 153.006 503.402 168.22 503.42 190.468C503.92 189.797 504.42 189.11 504.903 188.423C505.385 187.737 505.868 187.065 506.333 186.394L507.709 184.349L509.013 182.304C508.906 179.542 507.923 175.804 508.62 173.149M521.397 153.388C521.254 154.136 521.111 154.914 520.951 155.646C520.79 156.379 520.611 157.172 520.432 157.889C520.254 158.607 520.039 159.415 519.825 160.163C519.61 160.911 519.378 161.689 519.128 162.421L516.519 158.073C516.054 159.37 515.554 160.651 515.018 161.948C514.481 163.245 513.91 164.527 513.231 165.824C512.551 167.121 511.98 168.418 511.283 169.731C510.586 171.043 509.871 172.325 509.102 173.622C509.228 176.384 509.388 180.061 509.496 182.777L507.959 185.219C507.423 186.028 506.887 186.836 506.315 187.645C505.743 188.454 505.189 189.278 504.528 190.087C503.866 190.895 503.348 191.704 502.741 192.528C502.741 172.889 502.455 159.11 501.525 139.868C502.044 138.937 502.562 138.022 503.044 137.106C503.527 136.191 504.009 135.26 504.456 134.344C504.903 133.429 505.332 132.513 505.743 131.598C506.154 130.682 506.547 129.767 506.904 128.851C511.872 136.618 515.983 143.378 521.201 153.098L521.308 153.296" fill="#1A1A1A"/>
<path d="M501.758 192.635C501.275 193.26 500.793 193.886 500.274 194.512L498.755 196.389L497.183 198.265L495.539 200.142L488.158 174.873C484.977 189.659 482.368 200.448 476.936 218.362C476.203 218.988 475.47 219.613 474.72 220.224L472.468 222.1C471.718 222.711 470.949 223.336 470.163 223.947C469.377 224.557 468.608 225.183 467.822 225.793L456.546 189.308L458.887 187.508L461.174 185.707L463.426 183.891L465.624 182.091L473.022 206.505C476.596 194.557 479.884 183.189 483.744 165.092C484.423 164.375 485.085 163.642 485.728 162.925C486.371 162.208 487.033 161.399 487.658 160.743C488.283 160.087 488.891 159.293 489.445 158.576L491.232 156.394L501.704 192.696" fill="#1A1A1A"/>
<path d="M488.158 174.873L495.539 200.097L497.183 198.22L498.755 196.343L500.274 194.466C500.793 193.84 501.275 193.215 501.758 192.589L491.286 156.287L489.499 158.469C488.891 159.187 488.283 159.995 487.712 160.636C487.14 161.277 486.443 162.162 485.782 162.818C485.12 163.474 484.477 164.268 483.798 164.985C481.671 174.72 479.027 186.836 473.076 206.399L465.677 181.984L463.479 183.784L461.12 185.707L458.833 187.508L456.492 189.308L467.768 225.793C468.555 225.183 469.341 224.573 470.109 223.947C470.878 223.321 471.664 222.711 472.415 222.1L474.666 220.224C475.417 219.613 476.149 218.988 476.882 218.362C481.332 203.591 484.298 192.803 488.105 174.873M502.508 192.894L500.721 195.122C500.131 195.855 499.542 196.648 498.934 197.335C498.327 198.021 497.701 198.861 497.147 199.563L495.199 201.775L488.194 177.849C486.085 187.553 483.441 199.624 477.472 219.049L474.988 221.154C474.166 221.856 473.308 222.558 472.45 223.26L469.859 225.335L467.196 227.426L455.295 188.973L458.082 186.852C458.994 186.15 459.87 185.448 460.799 184.731L463.461 182.594L466.053 180.443L473.04 203.484C475.542 195 479.33 182.121 483.137 164.329C483.887 163.535 484.62 162.803 485.335 161.918C486.05 161.033 486.764 160.316 487.461 159.507C488.158 158.698 488.837 157.981 489.516 157.096L491.464 154.685L502.49 192.833" fill="#1A1A1A"/>
<path d="M429.74 216.882C417.838 224.161 413.925 229.7 415.801 236.719L415.908 237.024C418.643 243.784 425.165 243.937 436.441 237.512L439.765 235.498C440.873 234.811 441.963 234.14 443.036 233.453L446.252 231.409L449.397 229.349L442.839 208.764L439.676 210.778L436.424 212.838C435.333 213.51 434.243 214.196 433.118 214.868L429.74 216.882ZM462.103 230.112C460.316 231.47 458.351 232.828 456.421 234.171C454.491 235.513 452.525 236.856 450.505 238.184C448.486 239.511 446.449 240.824 444.376 242.121C442.303 243.418 440.176 244.73 438.014 246.012C420.036 256.586 406.812 255.884 402.666 244.135L402.148 242.609C398.574 231.531 405.972 221.246 426.148 209.435C428.352 208.154 430.514 206.862 432.635 205.559C434.744 204.262 436.835 202.95 438.872 201.623C440.909 200.295 442.928 198.967 444.912 197.625C446.896 196.282 448.808 194.939 450.702 193.596L462.103 230.096" fill="#1A1A1A"/>
<path d="M430.062 217.858C418.767 224.756 415.193 229.684 416.927 236.17L417.016 236.459C419.518 242.67 425.415 242.7 436.137 236.581L439.211 234.72L442.231 232.843L445.198 230.951L448.129 229.059L442.178 210.412L439.229 212.304L436.227 214.196L433.171 216.073L430.062 217.935M449.397 229.379L446.252 231.439L443.035 233.484C441.963 234.171 440.873 234.842 439.765 235.529L436.441 237.543C425.165 243.967 418.571 243.814 415.908 237.054L415.801 236.749C413.925 229.776 417.838 224.237 429.74 216.912L433.1 214.898C434.225 214.227 435.315 213.54 436.406 212.869L439.676 210.778L442.857 208.718L449.415 229.303M426.184 209.466C405.883 221.368 398.574 231.607 402.148 242.624L402.666 244.15C406.812 255.9 420.036 256.602 438.014 246.027C440.176 244.745 442.285 243.448 444.376 242.136C446.467 240.824 448.504 239.526 450.505 238.199C452.507 236.871 454.49 235.529 456.42 234.186C458.35 232.843 460.245 231.485 462.103 230.127L450.702 193.627C448.808 194.969 446.878 196.328 444.912 197.655C442.946 198.983 440.927 200.326 438.872 201.653C436.817 202.981 434.744 204.293 432.635 205.59C430.526 206.887 428.346 208.184 426.148 209.466M463.283 230.432C461.376 231.846 459.417 233.255 457.403 234.659C455.39 236.063 453.353 237.451 451.292 238.825C449.201 240.213 447.092 241.587 444.93 242.945C442.767 244.303 440.569 245.645 438.336 246.988C419.929 257.807 405.811 256.937 401.487 244.699L400.969 243.173C397.18 231.5 404.846 220.788 425.826 208.459C428.114 207.131 430.365 205.773 432.563 204.43C434.761 203.087 436.924 201.699 439.05 200.326C441.177 198.952 443.25 197.564 445.287 196.175C447.324 194.786 449.326 193.382 451.292 191.963L463.283 230.417" fill="#1A1A1A"/>
<path d="M403.006 264.414L399.682 265.94C398.574 266.444 397.466 266.948 396.34 267.466L392.945 268.992L389.532 270.518L376.647 234.049L380.132 232.523L383.581 230.997L386.994 229.471C388.138 228.967 389.264 228.464 390.372 227.945L403.006 264.445" fill="#1A1A1A"/>
<path d="M376.647 233.896L389.532 270.366L392.945 268.84L396.34 267.314C397.466 266.825 398.574 266.322 399.682 265.788L403.006 264.262L390.372 227.762C389.264 228.281 388.138 228.784 386.994 229.288L383.581 230.814L380.132 232.34L376.647 233.865M404.507 264.781C403.22 265.391 401.916 265.986 400.611 266.581L396.662 268.351L392.677 270.091L388.638 271.815L375.039 233.408L379.167 231.683L383.241 229.944L387.262 228.158L391.247 226.358L404.507 264.796" fill="#1A1A1A"/>
<path d="M381.258 273.768L377.773 275.141L374.199 276.484L370.625 277.827L367.051 279.124L357.794 253.824C348.859 266.734 342.157 275.996 330.434 290.813L326.485 291.881L322.5 292.949L318.497 293.971L314.476 294.963L300.18 258.768L304.165 257.776L308.132 256.754L312.082 255.716L315.995 254.648L325.341 278.88C333.061 268.946 340.353 259.44 351.218 243.601L355.489 242.075L359.724 240.549L363.924 239.023L368.069 237.405L381.115 273.86" fill="#1A1A1A"/>
<path d="M357.901 253.824L367.158 279.124L370.732 277.827L374.306 276.484L377.88 275.142L381.365 273.768L368.194 237.314L364.049 238.931L359.849 240.457L355.614 241.983L351.343 243.509C345.481 252.009 338.172 262.568 325.466 278.789L316.12 254.557L312.207 255.625L308.257 256.663L304.29 257.685L300.305 258.677L314.601 294.872L318.622 293.88L322.625 292.858L326.61 291.79L330.559 290.721C340.209 278.514 347.072 269.358 357.919 253.733M382.937 274.119L378.827 275.737C377.451 276.286 376.075 276.82 374.681 277.263L370.482 278.789L366.264 280.315L357.472 256.556C351.575 264.994 344.248 275.493 331.542 291.53L327.093 292.751L322.625 293.926L318.104 295.085L313.583 296.199L298.5 258.082L303.218 256.922L307.918 255.732L312.582 254.496L317.21 253.229L326.038 276.118C331.507 269.038 339.763 258.356 350.467 242.731L355.221 241.037C356.793 240.457 358.366 239.893 359.92 239.298L364.567 237.543L369.159 235.742L382.884 274.135" fill="#1A1A1A"/>
<path d="M270.319 304.47H269.925H269.514H269.103H268.71C256.469 306.27 246.676 305.34 239.599 301.693L238.581 301.128C238.099 303.229 238.099 305.39 238.581 307.491L236.311 307.689L234.077 307.888L231.826 308.071L229.592 308.239L221.068 288.783C224.177 288.539 227.305 288.264 230.432 287.974C233.559 287.685 236.74 287.334 239.921 286.983C243.102 286.632 246.319 286.22 249.535 285.792C252.752 285.365 255.986 284.892 259.221 284.404L261.759 290.507L256.147 291.316C254.36 291.591 252.412 291.835 250.572 292.079L245.032 292.766L239.51 293.392L239.76 293.956C243.084 298.992 277.913 300.06 283.06 287.212C283.682 285.664 283.682 283.983 283.06 282.435L282.828 281.886C276.055 267.893 240.904 276.591 237.651 282.039C237.426 282.47 237.252 282.92 237.133 283.381L232.773 283.854L228.448 284.282L224.141 284.678L219.853 285.029C216.833 274.348 233.827 270.243 250.84 267.619L251.662 267.496L252.502 267.374L253.342 267.237L254.182 267.115C270.801 264.551 293.622 262.873 299.858 277.797L300.412 279.185C303.879 288.509 297.785 300.014 270.354 304.348" fill="#1A1A1A"/>
<path d="M238.581 301.388C249.75 307.491 264.01 305.416 268.71 304.729H269.103H269.514H269.925H270.318C297.732 300.319 303.825 288.844 300.376 279.567L299.822 278.178C293.586 263.331 270.765 265.009 254.146 267.497L253.306 267.619L252.466 267.756L251.626 267.878L250.804 268C233.791 270.625 216.85 274.73 219.817 285.411L224.106 285.06L228.412 284.663L232.737 284.236L237.097 283.763C239.349 275.828 274.089 270.274 281.434 279.872C281.965 280.636 282.419 281.438 282.792 282.268L283.024 282.817C287.653 295.62 254.682 301.647 241.69 295.787C240.86 295.478 240.175 294.941 239.742 294.261L239.492 293.697L245.014 293.071L250.554 292.385C252.341 292.14 254.271 291.896 256.129 291.622L261.741 290.813L259.203 284.709C255.969 285.197 252.734 285.67 249.517 286.098C246.301 286.525 243.084 286.922 239.903 287.288C236.722 287.654 233.559 287.975 230.414 288.28C227.269 288.585 224.159 288.844 221.05 289.089L229.574 308.437L231.808 308.269L234.059 308.086L236.293 307.888L238.563 307.69C238.14 305.854 238.092 303.97 238.42 302.12L238.581 301.327M270.747 305.355H270.354H269.943H269.532H269.139C264.761 305.996 251.483 307.964 239.975 302.944C239.642 304.57 239.703 306.237 240.153 307.842L240.261 308.254L237.33 308.529L234.417 308.773L231.504 309.002L228.609 309.216L219.263 287.853C222.587 287.608 225.94 287.329 229.324 287.013C232.707 286.698 236.115 286.342 239.546 285.945C242.965 285.548 246.408 285.121 249.875 284.663C253.342 284.206 256.826 283.697 260.329 283.137L263.653 291.072L258.095 291.896C256.308 292.171 254.396 292.415 252.555 292.659C250.715 292.903 248.892 293.148 247.069 293.361L241.601 294.002C250.536 299.663 283.632 295.818 281.97 284.022C281.889 283.505 281.757 282.995 281.577 282.497L281.344 281.932C274.893 268.595 241.261 278.087 238.992 282.405C238.798 282.806 238.666 283.226 238.599 283.656V284.007L233.791 284.526L229.02 285.014L224.267 285.442L219.567 285.823H218.78C214.384 273.616 232.326 269.206 250.464 266.413L251.287 266.291L252.126 266.169L252.966 266.032L253.806 265.91C264.85 264.201 294.229 259.684 301.359 277.156L301.913 278.544C305.487 288.371 299.286 300.472 270.783 304.989" fill="#1A1A1A"/>
<path d="M192.082 311.291C160.844 310.253 156.18 295.436 161.059 291.713C164.472 289.119 173.05 288.463 181.538 288.02C210.006 286.494 193.78 280.192 183.039 279.872C167.903 279.429 163.382 282.42 161.398 283.702L152.606 277.598C166.456 268.443 211.578 272.7 210.56 286.586C209.988 294.216 191.063 295.314 183.951 295.741C159.361 297.176 175.73 303.203 180.377 303.92C182.289 304.21 199.409 306.575 209.255 299.617C209.916 299.136 210.549 298.627 211.15 298.091C214.009 299.617 217.815 301.769 220.692 303.325C218.101 305.37 210.238 311.611 192.1 311.336" fill="#1A1A1A"/>
<path d="M143.028 306.484L140.526 306.103L138.042 305.706L135.594 305.294L133.146 304.867L119.314 276.286L114.685 275.447C113.149 275.157 111.647 274.867 110.146 274.546L105.697 273.6C104.231 273.265 102.766 272.929 101.336 272.578L97.7622 265.467C101.336 266.332 105.059 267.141 108.931 267.893C112.803 268.646 116.717 269.323 120.672 269.923C124.675 270.533 128.767 271.078 132.949 271.556C137.149 272.044 141.42 272.441 145.78 272.792L149.157 279.979C147.46 279.857 145.744 279.704 144.064 279.552L139.025 279.033C137.363 278.865 135.719 278.666 134.075 278.468C132.431 278.27 130.822 278.056 129.214 277.827L143.028 306.484Z" fill="#1A1A1A"/>
<path d="M90.3281 293.987C86.2358 292.232 73.8159 286.891 64.005 268.489L54.5159 249.842L56.1778 250.696L57.8576 251.536L59.6447 252.375L61.4317 253.184L70.5992 271.281C78.7302 286.54 92.4725 290.691 94.331 286.647C95.2067 284.724 93.6877 281.459 92.955 279.903L83.8769 261.591L85.9677 262.217L88.0943 262.843L90.2566 263.453L92.4368 264.033L101.783 282.939C108.52 297.771 97.8158 296.825 90.4353 293.926" fill="#1A1A1A"/>
<path d="M38.7005 244.028C36.0557 241.876 33.8576 240.228 34.0184 241.861C34.0184 243.036 39.8263 256.678 49.6193 265.238L51.1919 266.535C51.728 266.962 52.2641 267.39 52.8181 267.802L54.48 269.068L56.267 270.304L45.3482 249.033C44.7585 248.636 44.1867 248.224 43.5612 247.812L41.8993 246.576L40.2731 245.31C39.737 244.882 39.2187 244.47 38.7005 244.028ZM65.506 280.848C64.3444 280.116 63.2007 279.323 62.0749 278.621C60.9491 277.919 59.859 277.095 58.8046 276.332C57.7503 275.569 56.6959 274.806 55.6952 273.982C54.6945 273.158 53.6937 272.456 52.7466 271.571C39.9871 260.126 27.2634 234.674 28.7288 232.873C29.6938 232.782 31.1056 233.804 34.8762 236.886C35.8412 237.695 36.8241 238.412 37.8248 239.252C38.8256 240.091 39.8799 240.778 40.9343 241.541C41.9886 242.303 43.0966 243.066 44.2224 243.784C45.3483 244.501 46.492 245.31 47.6714 245.95L65.5418 280.848" fill="#1A1A1A"/>
<path d="M38.093 255.32L37.3067 254.114L36.574 252.909L35.8592 251.688L35.1801 250.452L17.4348 216.21L18.096 217.416L18.793 218.621L19.5256 219.812L20.2941 220.987L38.1644 255.32" fill="#1A1A1A"/>
</g>
</svg>
