<?xml version="1.0" encoding="UTF-8"?>
<svg id="Layer_2" data-name="Layer 2" xmlns="http://www.w3.org/2000/svg" viewBox="0 0 283.14 188.24">
  <defs>
    <style>
      .cls-1 {
        fill: #fff;
        stroke-width: 0px;
      }
    </style>
  </defs>
  <g id="Layer_1-2" data-name="Layer 1">
    <path class="cls-1" d="m9.66,123.96c.22-1.34.48-2.68.8-4,.32-1.32.68-2.67,1.1-4,.42-1.33.89-2.65,1.41-4,.52-1.35,1.08-2.63,1.69-3.94l-2-4.79c-.44.92-.85,1.85-1.24,2.77-.39.92-.75,1.86-1.09,2.79-.34.93-.66,1.87-1,2.81-.34.94-.56,1.88-.8,2.82l-7.17-16.46c-.11.38-.21.77-.3,1.16-.09.39-.19.77-.27,1.16-.08.39-.17.77-.25,1.16s-.15.77-.22,1.16l9.34,21.36Z"/>
    <path class="cls-1" d="m12.61,103.21l2,4.79c-.61,1.31-1.17,2.62-1.69,3.94-.52,1.32-1,2.64-1.41,4s-.78,2.66-1.1,4c-.32,1.34-.58,2.68-.8,4L.27,102.56c.07-.39.14-.77.22-1.16s.16-.78.25-1.16c.09-.38.17-.78.27-1.16.1-.38.19-.78.3-1.16l7.17,16.49c.24-.94.51-1.88.8-2.82.29-.94.61-1.87,1-2.81.39-.94.7-1.86,1.09-2.79.39-.93.8-1.85,1.24-2.77m-12.36-2.19c-.09.46-.17.92-.25,1.38l9.88,22.55m0,0c.21-1.41.48-2.81.81-4.22.33-1.41.71-2.8,1.14-4.19s.93-2.78,1.48-4.17c.55-1.39,1.14-2.75,1.79-4.12l-.05-.26-2.44-5.71c-.45.92-.87,1.85-1.26,2.77-.39.92-.77,1.86-1.12,2.79-.35.93-.67,1.87-1,2.8-.33.93-.58,1.88-.83,2.82l-7.18-16.51-.34,1.32"/>
    <path class="cls-1" d="m14.22,79.03c1.72,1.61,3.5,3.28,6.2,5.76l-1.2,1.6c-.39.53-.78,1.07-1.15,1.61-.37.54-.76,1.08-1.12,1.62-.36.54-.72,1.08-1.07,1.62-.75-5.3-1-6.9-1.66-12.21Zm.93,28c.18-.39.37-.77.57-1.15.2-.38.39-.77.59-1.15l.62-1.14c.21-.39.43-.76.64-1.14-.25-1.6-.58-3.73-.82-5.33.49-.81,1-1.61,1.52-2.42.52-.81,1.06-1.6,1.62-2.4.56-.8,1.13-1.59,1.71-2.38s1.2-1.57,1.82-2.36c.82.75,1.92,1.74,2.75,2.48l.95-1.15,1-1.15,1-1.14,1-1.14c-4-3.36-8.78-7.43-15.24-13.22l-1.13,1.48c-.37.49-.73,1-1.09,1.48-.36.48-.71,1-1,1.5s-.68,1-1,1.49c1,7.32,2.32,16.19,4.57,28.84"/>
    <path class="cls-1" d="m14.75,80.27c1.64,1.54,2.83,2.65,4.95,4.6l-.95,1.29-.87,1.29c-.31.43-.6.86-.9,1.29l-.87,1.3c-.43-3.14-.77-5.62-1.31-9.77m1.13,11c.35-.54.71-1.08,1.07-1.62.36-.54.74-1.08,1.12-1.62.38-.54.76-1.08,1.15-1.61l1.2-1.6c-1.92-1.77-3.59-3.3-6.2-5.76.69,5.27.92,7,1.66,12.21Zm7.54-3.72c-.62.79-1.23,1.57-1.82,2.36s-1.16,1.59-1.71,2.38c-.55.79-1.1,1.6-1.62,2.4-.52.8-1,1.61-1.52,2.42.24,1.6.57,3.73.82,5.33-.21.38-.43.75-.64,1.14l-.62,1.14c-.2.38-.4.76-.59,1.15-.19.39-.39.76-.57,1.15-1.26-7.16-2.76-15.87-4.57-28.84.34-.5.67-1,1-1.49.33-.49.69-1,1-1.5s.72-1,1.09-1.48l1.16-1.51c2.64,2.36,7.56,6.76,15.24,13.22l-1,1.14-1,1.14-1,1.15-.95,1.11c-.83-.74-1.93-1.73-2.75-2.48m-8.36,20.69c.22-.46.44-.92.67-1.38.23-.46.47-.92.71-1.38s.49-.92.74-1.38l.77-1.37c-.24-1.59-.57-3.72-.81-5.31.46-.77.95-1.53,1.44-2.3.49-.77,1-1.52,1.54-2.27.54-.75,1.07-1.51,1.63-2.26.56-.75,1.12-1.5,1.71-2.24l2.75,2.47,1.13-1.38c.38-.46.77-.91,1.16-1.37l1.19-1.35,1.19-1.31c-6.25-5.26-10.46-8.91-16.1-13.93l-1.19,1.55c-.4.53-.8,1.07-1.18,1.6s-.77,1.07-1.14,1.61l-1.09,1.62c1.36,9.53,2.64,17.9,4.83,30.12l.05.26Z"/>
    <path class="cls-1" d="m31.21,84.23l1-1,1-1,1-1,1-1-5.9-14.54c4,1.18,6.83,2,16.83,4.85l1.22-1,1.25-1c.41-.33.83-.65,1.25-1l1.27-1-8.14-20.84-1.27.93-1.24.93-1.24.94-1.22.95,5.51,13.92c-5.57-1.67-10.63-3.19-16.09-4.86l-1.24,1.18-1.21,1.18-1.2,1.19-1.16,1.2,8.58,21"/>
    <path class="cls-1" d="m29.31,65.58l5.9,14.54-1,1-1,1-1,1-1,1-8.58-21,1.16-1.2,1.2-1.19,1.21-1.18,1.24-1.18c3.57,1.09,6.66,2,16.09,4.86l-5.51-13.92,1.22-.95,1.24-.94,1.24-.93,1.27-.93,8.14,20.84-1.27,1c-.42.32-.84.64-1.25,1l-1.25,1-1.22,1c-7.69-2.2-10.87-3.11-16.83-4.85m1.77,19.57c.38-.41.76-.82,1.15-1.22s.77-.81,1.17-1.22l1.19-1.21,1.22-1.2-5.59-13.77c3.28,1,6.11,1.77,16,4.58l1.38-1.1,1.39-1.09,1.42-1.08,1.43-1.08-8.57-21.93-1.54,1.16c-.49.37-1,.73-1.47,1.1-.47.37-1,.74-1.46,1.12s-1,.74-1.44,1.12l5.21,13.15c-3.43-1-9.81-2.94-15.2-4.6l-1.37,1.31-1.35,1.32c-.45.44-.89.88-1.32,1.32-.44.44-.87.89-1.29,1.33l9,22.06"/>
    <path class="cls-1" d="m59.82,40.32c5.65-3.21,8.93-2.91,10.6,1l.06.17c1.26,4-.49,7-6.23,10.57l-1.66,1-1.64,1-1.62,1c-.54.35-1.07.69-1.6,1.05l-4.5-11.73c.53-.35,1.07-.7,1.62-1l1.64-1,1.65-1,1.68-1m-5.64,24c1-.7,2-1.39,3-2.08s2-1.36,3-2,2.06-1.34,3.1-2c1.04-.66,2.11-1.31,3.18-2,5.95-3.63,13.5-9.43,10.48-17.88l-.31-.86c-2.46-6.58-9-7.32-18.06-2-1.08.64-2.16,1.29-3.22,1.95-1.06.66-2.12,1.32-3.16,2-1.04.68-2.07,1.34-3.09,2-1.02.66-2,1.37-3,2.06l8.09,20.83"/>
    <path class="cls-1" d="m60.03,40.88c5.37-3.06,8.32-2.85,9.86.71l.06.17c1.15,3.67-.45,6.3-5.91,9.73l-1.53.94-1.52.95-1.5,1-1.49,1-4.07-10.62,1.5-1,1.52-.95,1.53-.95,1.55-.94m-2.3,15.29c.53-.36,1.06-.7,1.6-1.05l1.62-1,1.64-1,1.66-1c5.74-3.62,7.49-6.58,6.23-10.57l-.06-.17c-1.67-3.89-4.95-4.19-10.6-1l-1.68,1-1.65,1-1.64,1c-.55.34-1.09.69-1.62,1l4.5,11.73m.85-20.68c9-5.28,15.6-4.54,18.06,2l.31.86c3,8.45-4.53,14.25-10.48,17.88-1.07.65-2.13,1.3-3.18,2-1.05.7-2.08,1.32-3.1,2-1.02.68-2,1.35-3,2-1,.65-2,1.38-3,2.08l-8.09-20.82c1-.7,2-1.39,3-2.07,1-.68,2-1.35,3.09-2,1.09-.65,2.09-1.33,3.16-2,1.07-.67,2.14-1.31,3.22-1.95m-4.69,29.76l3.08-2.16c1-.71,2.09-1.42,3.15-2.12s2.14-1.39,3.23-2.08c1.09-.69,2.18-1.36,3.29-2,3.93-2.41,14.38-8.79,10.84-18.71l-.32-.86c-2.6-6.95-9.46-7.8-18.82-2.32-1.13.67-2.25,1.35-3.35,2-1.1.65-2.2,1.37-3.28,2.07s-2.15,1.4-3.21,2.11c-1.06.71-2.1,1.42-3.13,2.15l8.52,21.92Z"/>
    <path class="cls-1" d="m83.31,47.1l1.55-.76,1.56-.74,1.57-.74,1.58-.72-7.46-20.8-1.61.72-1.6.74-1.59.75-1.57.75,7.57,20.8Z"/>
    <path class="cls-1" d="m82.11,23.34l7.46,20.8-1.58.72-1.57.74-1.56.74-1.55.76-7.57-20.8,1.57-.75,1.59-.75,1.6-.74,1.61-.72Zm.84,24.57l1.83-.89,1.84-.88,1.85-.87,1.87-.85-7.85-21.9-1.9.85-1.89.87-1.87.88-1.86.89,8,21.9"/>
    <path class="cls-1" d="m93.38,42.45l1.6-.69,1.6-.67,1.62-.67,1.62-.65-5.08-14.48c7.53,2.9,12.92,5,21.54,8.56l1.77-.56,1.78-.55,1.78-.54,1.8-.53-7-20.9-1.77.52-1.76.53-1.76.54-1.74.56,4.71,13.92c-4.92-2-10.5-4.38-20.49-8.33l-1.93.76-1.92.78-1.91.79-1.89.8,7.4,20.81"/>
    <path class="cls-1" d="m94.74,25.29l5.08,14.48-1.62.65-1.62.67-1.6.67-1.6.69-7.4-20.81,1.89-.8,1.91-.79,1.92-.78,1.93-.76c5.86,2.32,11.83,4.7,20.49,8.33l-4.71-13.88,1.74-.56,1.76-.54,1.76-.53,1.77-.52,7,20.9-1.8.53-1.78.54-1.78.55-1.77.56c-7.12-2.92-12.4-5-21.54-8.56m-1.74,17.95l1.88-.81,1.9-.8,1.9-.78,1.93-.78-4.81-13.71c6.06,2.35,11.77,4.57,20.41,8.11l2-.63,2-.61,2-.61,2-.58-7.33-22-2.09.62-2.09.62-2.07.64-2.07.66,4.46,13.16c-4.32-1.8-10.25-4.27-19.35-7.87l-2.15.85-2.13.86-2.12.88-2.1.89,7.81,21.91"/>
    <path class="cls-1" d="m143.37,27.14h.72c2.12-.44,8.55-1.77,10.81-5.72l.23-.42c.93,1.02,1.71,2.17,2.32,3.42l1-.15,1-.14,1-.14,1-.13-3.52-11.52c-1.42.18-2.83.38-4.26.6-1.43.22-2.85.43-4.29.67s-2.87.5-4.31.76l-4.35.84,1.12,3.53,2.52-.49,2.5-.47,2.49-.44,2.48-.41.11.34c.43,3-13.46,8.3-19.21,4-.89-.65-1.56-1.56-1.9-2.61l-.11-.32c-2.36-8.81,14-10,17.4-7.93.41.25.78.56,1.1.92l2-.32,2-.3,2-.29,1.94-.26c-1.28-3-5.45-7.61-18.91-5l-.38.07-.37.08-.38.07-.37.08c-10.87,2.2-15.87,7.5-13.7,14.42l.27.81c1.57,4.48,6.33,9.24,20.05,6.45Z"/>
    <path class="cls-1" d="m155.13,20.86c-2.38,4.35-8.23,5.56-11,6.14h-.72c-13.81,2.77-18.52-2-20.05-6.45l-.27-.81c-2.21-6.78,2.79-12.08,13.63-14.41l.37-.08.38-.07.37-.08.38-.07c13.52-2.65,17.65,2,18.91,5l-1.94.26-2,.29-2,.3-2,.32c-3.8-4-18.47-1.32-18.81,4.86-.01.73.09,1.45.31,2.15l.11.32c2.69,7.49,18.46,3.7,20.91-.46.18-.27.25-.59.2-.91l-.11-.34-2.48.41-2.49.44-2.5.47-2.52.49-1.12-3.53,4.35-.84c1.44-.26,2.88-.52,4.31-.76,1.43-.24,2.87-.46,4.29-.67s2.84-.42,4.26-.6l3.52,11.52-1,.13-1,.14-1,.14-1,.15c-.53-1.08-1.21-2.09-2-3l-.34-.4m-11.58,6.83h.72c3.77-.77,8.42-2.1,10.92-5.47.55.13,1.74,2.58,1.75,2.6l.1.24,1.33-.19,1.33-.19,1.32-.17,1.32-.17-3.86-12.64c-1.52.2-3,.41-4.58.64-1.58.23-3.07.47-4.61.72-1.54.25-3.09.54-4.65.82-1.56.28-3.11.6-4.68.92l1.48,4.64,2.49-.49c.82-.17,1.65-.32,2.48-.47.83-.15,1.64-.3,2.47-.45l2.46-.41c-1.55,3.95-16.71,7.49-19.56,1.42-.07-.16-.15-.38-.21-.55l-.11-.32c-2.19-8.19,13.23-9.27,16.45-7.27.37.24.71.53,1,.87l.13.18,2.17-.35,2.17-.33,2.15-.32,2.14-.29.34-.07c-2.32-6-9.22-8.08-20-6l-.38.08-.37.07-.38.08-.37.08c-16,3.43-15.22,11.84-14.13,15.29l.26.81c1.66,4.71,6.63,9.71,20.88,6.82"/>
    <path class="cls-1" d="m179.51,23.08c18.07-1.24,8.28-11,8.16-11.06-3.61-2.81-10.15-2.89-14.06-2.93-4.14,0-6.71-.16-7.21-1.76-.58-1.8,2.57-2.73,5.7-3,6.38-.57,9.87,1.37,11.35,2.19.59-1,1.37-2.46,2-3.51-10.41-6-26.93-2.42-24.55,5.28,1.43,4.63,8.38,5.2,15.37,5.38,13.12.33,8.29,4.23,7,4.62-.08,0-9.11,2.39-16.9-1.59l-.7-.38c-.67,1.1-1.55,2.58-2.22,3.69,4.99,2.45,10.55,3.51,16.09,3.07"/>
    <path class="cls-1" d="m202.95,22.59l1.27.1,1.26.1,1.26.11,1.25.11-4.84-17.62,2.39.23,2.37.26,2.34.29c.78.1,1.55.2,2.32.32l-1.18-4.42c-1.94-.27-3.91-.52-5.9-.73-1.99-.21-4-.39-6.05-.53s-4.1-.26-6.19-.34c-2.09-.08-4.19-.13-6.32-.14l1.24,4.35h2.5l2.49.07,2.46.1,2.45.13,4.88,17.57"/>
    <path class="cls-1" d="m231.67,27.83c4.89,1.13,9.63,1.08,7.63-7.93l-3-12-1-.35-1-.35-1.06-.34-1.06-.33,2.95,11.55c2.15,9.47-7.32,4.18-7.42,4.13-1.37-.81-2.56-1.89-3.51-3.16-.95-1.28-1.64-2.73-2.02-4.28l-3-11.45-1.17-.22-1.17-.22-1.18-.2-1.19-.2,3.14,11.79c.94,3.32,2.75,6.32,5.25,8.7,2.49,2.38,5.58,4.04,8.94,4.82"/>
    <path class="cls-1" d="m250.3,17.96c7.66,4.37,9.31,14.2,7.09,14.91-1.05.34-2.76-.55-3.68-1l-1.12-.6-1.14-.59-1.16-.57c-.38-.19-.77-.38-1.17-.56l-3.43-13.84,1.18.55,1.16.56,1.15.58c.38.19.75.39,1.12.59m-3.95,14.18l2.26,1c.74.34,1.48.68,2.2,1s1.44.71,2.15,1.08c.71.37,1.41.74,2.09,1.12,2.76,1.45,9.2,4.83,5.86-6.86-1.45-5-4.6-11.88-11.43-15.86l-2.11-1.08c-.71-.35-1.43-.7-2.17-1-.74-.3-1.47-.67-2.22-1s-1.51-.64-2.28-1l5.65,22.56"/>
    <path class="cls-1" d="m266.63,44.35l.71.63c.24.2.47.42.7.63.23.21.46.42.68.64l.67.64-5.46-23c-.23-.22-.45-.43-.68-.63l-.69-.63-.68-.67-.71-.6,5.48,23"/>
    <path class="cls-1" d="m273.07,38.04c3.18,5.74,5.41,16.88,5.25,17.69h-.17c-3.42-3-9.25-19.94-6.79-19.66.23,0,.76.31,1.71,1.93m4.69,20.11c1.62,2.83,1.78,3.05,2.14,3.44h.19c.26-5-7.47-32.9-11.22-31-.06,0-3.59,5.73,8.89,27.6"/>
    <path class="cls-1" d="m282.03,68.57c.29,1.3.51,2.6.67,3.92.16,1.32.26,2.64.3,4s0,2.68-.07,4-.22,2.72-.42,4.09l-1.23-5.27c.14-1,.25-1.93.34-2.89s.14-1.92.16-2.87c.02-.95,0-1.89,0-2.84s-.1-1.87-.2-2.8l-4.16-17.92c0-.38-.09-.75-.14-1.13-.05-.38-.1-.76-.16-1.13s-.12-.75-.19-1.12c-.07-.37-.15-.75-.23-1.12l5.35,23.06"/>
    <path class="cls-1" d="m281.28,79.33l1.23,5.27c.2-1.37.34-2.74.42-4.09.08-1.35.11-2.7.07-4-.04-1.3-.14-2.67-.3-4-.16-1.33-.38-2.62-.67-3.92l-5.35-23.06c.08.37.15.74.23,1.12.08.38.13.74.19,1.12s.11.75.16,1.13c.05.38.1.75.14,1.13l4.16,17.93c.1.93.16,1.86.2,2.8.04.94,0,1.89,0,2.84s-.08,1.91-.16,2.87c-.08.96-.2,1.92-.34,2.89m.8-10.56c.31,1.35.55,2.72.73,4.09.18,1.37.28,2.78.33,4.17.05,1.39,0,2.82-.07,4.24-.07,1.42-.25,2.86-.47,4.3l-.06-.14-1.47-6.28c.15-1,.27-1.93.37-2.89.1-.96.15-1.92.19-2.87.04-.95,0-1.9,0-2.84s-.08-1.88-.17-2.81l-4.17-17.94c0-.45-.09-.9-.15-1.34-.06-.44-.11-.89-.19-1.34-.08-.45-.14-.88-.23-1.32-.09-.44-.18-.88-.28-1.32l5.64,24.29Z"/>
    <path class="cls-1" d="m274.44,78.1c.26,4,.5,7.86.78,13.76.29-.6.57-1.2.83-1.81.26-.61.52-1.2.77-1.8s.47-1.2.7-1.8c.23-.6.43-1.19.63-1.79-1.59-2.89-2-3.62-3.71-6.56Zm7.9,7.56c-.06.41-.14.82-.22,1.22-.08.4-.16.82-.25,1.22s-.18.82-.28,1.23c-.1.41-.2.82-.31,1.23l-1.46-2.81c-.27.88-.55,1.77-.87,2.65-.32.88-.64,1.77-1,2.66-.36.89-.74,1.78-1.15,2.67-.41.89-.83,1.78-1.28,2.68.06,1.79.15,4.18.21,6l-.73,1.33c-.25.44-.5.88-.76,1.32-.26.44-.52.89-.79,1.33-.27.44-.54.89-.82,1.33,0-8.17-.1-18.09-.72-32.5.26-.55.52-1.1.77-1.66s.49-1.1.72-1.66c.23-.56.45-1.1.66-1.65.21-.55.42-1.1.61-1.65,5.27,9.6,7.67,15.07,7.67,15.08"/>
    <path class="cls-1" d="m274.77,79.5c.23,3.55.4,6.35.65,11,.22-.48.44-1,.64-1.45.2-.45.42-1,.61-1.44.19-.44.38-1,.57-1.43s.35-1,.52-1.44c-.94-1.68-1.68-3-3-5.25m3.38,5.16c-.2.6-.41,1.2-.63,1.79-.22.59-.46,1.2-.7,1.8s-.5,1.2-.77,1.8c-.27.6-.54,1.21-.83,1.81-.2-4-.39-7.86-.78-13.76,1.7,2.94,2.12,3.67,3.71,6.56Zm-2.63,13.75c.45-.9.88-1.79,1.28-2.68s.79-1.78,1.15-2.67c.36-.89.69-1.77,1-2.66s.6-1.77.87-2.65l1.46,2.81c.11-.41.21-.82.31-1.23.1-.41.19-.82.28-1.23.09-.41.18-.81.25-1.22.07-.41.16-.81.22-1.22-1.72-3.7-3.88-8.22-7.67-15.08-.19.55-.4,1.1-.61,1.65-.21.55-.43,1.1-.66,1.65-.23.55-.47,1.11-.72,1.66s-.51,1.11-.77,1.66c.34,8.14.7,18,.72,32.5.28-.44.55-.88.82-1.33.27-.45.53-.88.79-1.33.26-.45.51-.88.76-1.32l.73-1.33c-.06-1.8-.6-4.23-.21-6m7.08-12.84c-.07.48-.16,1-.25,1.46s-.18,1-.29,1.46c-.11.46-.21,1-.33,1.47s-.25,1-.38,1.48l-1.47-2.8c-.25.84-.53,1.68-.83,2.51-.3.83-.62,1.69-1,2.53-.38.84-.7,1.69-1.08,2.53-.38.84-.78,1.69-1.21,2.54.07,1.79.16,4.19.22,6-.28.53-.56,1-.86,1.58-.3.58-.6,1.06-.91,1.59-.31.53-.62,1.05-.95,1.58l-1,1.58c0-12.76-.16-21.72-.68-34.23.29-.6.58-1.2.85-1.8.27-.6.53-1.19.78-1.79.25-.6.49-1.19.71-1.79.22-.6.45-1.19.65-1.78,2.75,5,5,9.45,7.93,15.76l.06.14"/>
    <path class="cls-1" d="m271.71,111.11c-.26.41-.54.81-.82,1.22-.28.41-.56.81-.85,1.22-.29.41-.58.81-.87,1.22-.29.41-.6.81-.91,1.21l-4.1-16.43c-1.76,9.62-3.21,16.63-6.23,28.28l-1.22,1.21-1.25,1.22-1.28,1.2c-.43.4-.87.81-1.31,1.2l-6.26-23.7,1.3-1.17,1.28-1.17,1.24-1.17,1.23-1.18,4.11,15.83c2-7.76,3.8-15.15,5.95-26.92l1.1-1.41,1.06-1.41c.35-.47.69-.95,1-1.42l1-1.41,5.81,23.6"/>
    <path class="cls-1" d="m264.16,99.55l4.1,16.43c.31-.4.61-.81.91-1.21.3-.4.59-.81.87-1.22.28-.41.58-.81.85-1.22.27-.41.56-.81.82-1.22l-5.83-23.6-1,1.45c-.34.47-.68.95-1,1.42l-1.06,1.41-1.1,1.41c-1.19,6.33-2.66,14.21-5.95,26.92l-4.11-15.83-1.23,1.18-1.24,1.17-1.31,1.13-1.3,1.17,6.3,23.72c.44-.39.88-.8,1.31-1.2l1.28-1.2,1.25-1.22,1.22-1.21c2.48-9.6,4.12-16.61,6.23-28.28m8,11.73l-1,1.44-1,1.44c-.34.49-.69,1-1,1.45-.31.45-.71.95-1.08,1.43l-3.89-15.55c-1.17,6.31-2.63,14.16-5.92,26.78l-1.4,1.37-1.39,1.32-1.45,1.36-1.47,1.35-6.61-25,1.55-1.38,1.51-1.38,1.47-1.39,1.44-1.4,3.88,15c1.39-5.52,3.5-13.85,5.6-25.45.42-.52.83-1.05,1.23-1.57.4-.52.79-1,1.18-1.57.39-.57.76-1,1.13-1.57.37-.57.73-1,1.09-1.57l6.12,24.86"/>
    <path class="cls-1" d="m231.74,126.87c-6.61,4.73-8.78,8.33-7.74,12.87l.06.19c1.52,4.39,5.14,4.5,11.4.32l1.84-1.31c.61-.44,1.22-.88,1.82-1.33l1.78-1.33c.58-.44,1.17-.89,1.74-1.34l-3.63-13.38c-.59.45-1.17.9-1.77,1.34-.6.44-1.2.89-1.8,1.34l-1.84,1.32c-.61.44-1.24.87-1.86,1.31Zm18,8.6c-1.03.88-2.08,1.76-3.15,2.64-1.08.87-2.17,1.74-3.28,2.6s-2.26,1.72-3.41,2.57c-1.15.85-2.33,1.69-3.53,2.53-10,6.87-17.32,6.42-19.62-1.23l-.29-1c-2-7.2,2.12-13.85,13.33-21.56,1.21-.83,2.41-1.68,3.59-2.52,1.18-.84,2.33-1.7,3.47-2.56s2.25-1.73,3.34-2.6c1.09-.87,2.17-1.74,3.22-2.62l6.33,23.73"/>
    <path class="cls-1" d="m231.88,127.5c-6.27,4.48-8.25,7.69-7.29,11.86l.06.19c1.39,4,4.66,4,10.6.07.58-.4,1.15-.8,1.71-1.21l1.68-1.22,1.65-1.22,1.62-1.24-3.3-12.12-1.64,1.24-1.67,1.22c-.56.41-1.12.82-1.69,1.22-.57.4-1.15.81-1.73,1.21Zm10.76,7.46c-.57.45-1.16.9-1.74,1.34l-1.78,1.33c-.6.45-1.21.89-1.82,1.33l-1.84,1.31c-6.26,4.18-9.88,4.07-11.4-.32l-.06-.19c-1-4.54,1.13-8.14,7.74-12.87.62-.44,1.25-.87,1.86-1.31l1.84-1.32c.6-.45,1.21-.89,1.8-1.34.59-.45,1.18-.89,1.77-1.34l3.63,13.38Zm-12.89-12.9c-11.26,7.75-15.37,14.4-13.33,21.56l.29,1c2.3,7.65,9.64,8.1,19.62,1.23,1.2-.84,2.37-1.68,3.53-2.53,1.16-.85,2.29-1.71,3.41-2.57,1.12-.86,2.2-1.73,3.28-2.6,1.08-.87,2.12-1.76,3.15-2.64l-6.33-23.73c-1.05.88-2.12,1.75-3.22,2.62-1.1.87-2.21,1.74-3.34,2.6s-2.29,1.71-3.47,2.56c-1.18.85-2.38,1.69-3.59,2.52m20.6,13.63c-1.06.92-2.15,1.83-3.25,2.74-1.1.91-2.25,1.82-3.4,2.72-1.15.9-2.33,1.78-3.53,2.67s-2.43,1.76-3.67,2.63c-10.21,7-18,6.47-20.44-1.49l-.29-1c-2.11-7.59,2.15-14.55,13.8-22.57,1.26-.86,2.51-1.74,3.73-2.62,1.22-.88,2.43-1.77,3.6-2.66,1.17-.89,2.34-1.8,3.47-2.71,1.13-.91,2.24-1.81,3.33-2.73l6.65,25"/>
    <path class="cls-1" d="m216.88,157.77c-.61.33-1.22.66-1.84,1l-1.86,1-1.88,1-1.89.95-7.14-23.76,1.93-.95,1.91-1c.64-.32,1.27-.65,1.9-1l1.88-1,7,23.73"/>
    <path class="cls-1" d="m202.27,137.96l7.15,23.71,1.89-.95,1.88-1,1.86-1c.62-.32,1.23-.65,1.84-1l-7-23.73-1.88,1c-.63.33-1.26.66-1.9,1l-1.91,1-1.93.95m15.46,20.1l-2.16,1.16-2.19,1.15-2.22,1.14-2.28,1.1-7.55-25,2.29-1.13c.76-.37,1.51-.75,2.26-1.14s1.5-.76,2.24-1.15l2.2-1.17,7.37,25"/>
    <path class="cls-1" d="m204.82,163.84l-1.93.9-1.95.88-2,.86-2,.85-5.06-16.44c-5,8.38-8.68,14.4-15.19,24l-2.19.71-2.21.68-2.22.67-2.24.65-7.95-23.5,2.21-.65,2.2-.66,2.19-.68c.73-.22,1.46-.46,2.18-.69l5.22,15.75c4.28-6.45,8.33-12.64,14.36-22.93l2.37-1,2.35-1,2.33-1,2.31-1.05,7.23,23.69"/>
    <path class="cls-1" d="m191.88,150.89l5.13,16.44,2-.85,2-.86,1.95-.88,1.93-.9-7.23-23.69-2.31,1.05-2.33,1-2.35,1-2.37,1c-3.26,5.52-7.31,12.39-14.36,22.93l-5.19-15.75c-.72.23-1.45.47-2.18.69l-2.19.68-2.2.66-2.21.65,7.91,23.53,2.24-.65,2.22-.67,2.21-.68,2.19-.71c5.35-7.94,9.17-13.84,15.19-24m13.85,13.24l-2.27,1.06-2.31,1-2.32,1-2.35,1-4.87-15.56c-3.27,5.48-7.34,12.31-14.39,22.73l-2.47.8-2.49.77-2.5.74-2.52.73-8.41-24.7,2.62-.76,2.61-.78,2.59-.8,2.57-.83,4.9,14.91c3-4.6,7.63-11.55,13.57-21.71l2.63-1.1c.88-.37,1.75-.75,2.61-1.13l2.58-1.14,2.55-1.17,7.61,25"/>
    <path class="cls-1" d="m143.25,183.81h-.9c-6.8,1.18-12.23.57-16.16-1.8l-.57-.36c-.26,1.36-.26,2.77,0,4.13l-1.25.13-1.25.12c-.41,0-.83.08-1.24.12l-1.24.11-4.76-12.49c1.72-.15,3.45-.32,5.2-.52s3.5-.41,5.26-.65c1.76-.24,3.55-.49,5.33-.77s3.58-.58,5.39-.9l1.4,3.93-3.11.53-3.1.49-3.08.45-3.06.4.14.37c1.85,3.28,21.18,3.94,24-4.38.35-1.01.35-2.1,0-3.11l-.12-.36c-3.76-9.1-23.28-3.43-25.08.1-.12.28-.22.58-.29.88l-2.41.3c-.81.1-1.61.2-2.41.28l-2.39.26-2.38.23c-1.67-6.95,7.76-9.62,17.2-11.32l.46-.08.46-.08.47-.08.46-.09c9.23-1.66,21.9-2.76,25.36,6.89l.31.91c1.92,6.06-1.46,13.54-16.68,16.36"/>
    <path class="cls-1" d="m125.62,181.81c6.21,4,14.13,2.61,16.73,2.16h.9c15.21-2.87,18.59-10.33,16.68-16.36l-.31-.91c-3.46-9.65-16.13-8.55-25.36-6.89l-.46.09-.47.08-.46.08-.46.08c-9.44,1.7-18.87,4.37-17.2,11.32l2.38-.23,2.39-.26c.8-.08,1.6-.18,2.41-.28l2.41-.3c1.25-5.16,20.53-8.77,24.62-2.53.29.5.54,1.01.75,1.55l.12.36c2.58,8.32-15.73,12.24-22.94,8.44-.45-.19-.83-.53-1.08-.95l-.14-.37,3.06-.4,3.08-.45,3.1-.49,3.11-.53-1.4-4.06c-1.81.32-3.6.62-5.39.9-1.79.28-3.56.54-5.33.77s-3.52.46-5.26.65-3.48.37-5.2.52l4.73,12.65,1.24-.11c.41,0,.83-.07,1.24-.12l1.25-.12,1.25-.13c-.23-1.19-.25-2.42-.07-3.62l.08-.51m17.84,2.61h-.89c-2.43.42-9.8,1.69-16.19-1.57-.19,1.06-.15,2.14.1,3.19l.05.27-1.62.17-1.62.16c-.54.06-1.07.11-1.61.15l-1.6.14-5.2-13.73c1.85-.16,3.71-.35,5.59-.55,1.88-.2,3.77-.44,5.67-.7,1.9-.26,3.81-.53,5.74-.83,1.93-.3,3.85-.63,5.8-1l1.84,5.17-3.08.53c-1,.18-2.05.34-3.07.5l-3.05.45-3,.42c5,3.68,23.33,1.18,22.4-6.49-.05-.32-.12-.63-.22-.94l-.13-.36c-3.58-8.67-22.24-2.51-23.51.3-.1.26-.17.53-.21.81v.23l-2.67.34-2.65.31-2.64.28-2.61.25h-.43c-2.44-7.88,7.51-10.8,17.58-12.61l.46-.08.47-.09.46-.08.46-.09c6.14-1.1,22.44-4,26.4,7.31l.31.91c2,6.39-1.46,14.26-17.28,17.19"/>
    <path class="cls-1" d="m99.82,188.24c-17.35-.68-19.94-10.28-17.23-12.72,1.9-1.69,6.66-2.12,11.37-2.41,15.8-1,6.8-5.09.84-5.29-8.4-.29-10.94,1.65-12,2.48l-4.88-4c7.69-6,32.74-3.18,32.17,5.84-.31,5-10.82,5.68-14.77,5.95-13.65.93-4.56,4.84-1.95,5.31,1.06.19,10.56,1.73,16-2.79.37-.32.72-.65,1.05-1,1.59,1,3.7,2.39,5.29,3.4-1.43,1.34-5.8,5.39-15.9,5.21"/>
    <path class="cls-1" d="m72.56,185.11l-1.39-.24-1.38-.26-1.36-.27-1.36-.28-7.68-18.58c-.86-.17-1.72-.35-2.57-.54l-2.52-.58-2.47-.62-2.42-.66-1.94-4.62c2,.56,4.08,1.09,6.2,1.57,2.12.48,4.29.92,6.51,1.32,2.22.4,4.5.75,6.82,1.06s4.7.58,7.12.8l1.88,4.68c-1-.09-1.89-.18-2.83-.29-.94-.11-1.87-.21-2.79-.33-.92-.12-1.84-.24-2.75-.37l-2.7-.41,7.63,18.62Z"/>
    <path class="cls-1" d="m43.33,176.96c-2.27-1.14-9.16-4.61-14.61-16.57l-5.27-12.13.92.56.94.55.95.54,1,.53,5.09,11.76c4.51,10,12.14,12.62,13.17,10,.49-1.25-.36-3.37-.76-4.39l-5-11.86,1.16.41,1.18.41,1.2.39,1.21.38,5.19,12.29c3.74,9.64-2.2,9-6.3,7.14"/>
    <path class="cls-1" d="m14.67,144.52c-1.47-1.4-2.68-2.48-2.6-1.41.06.76,3.23,9.63,8.66,15.19l.88.84c.29.28.6.56.9.83.3.27.61.55.93.82l1,.81-6.06-13.83-1-.79-.93-.81c-.31-.27-.61-.55-.9-.82l-.88-.83Zm14.84,23.93c-.64-.48-1.28-1-1.9-1.45-.62-.45-1.23-1-1.82-1.48-.59-.48-1.16-1-1.72-1.53s-1.11-1-1.64-1.57c-7.08-7.44-14.15-24-13.33-25.16.54-.05,1.32.61,3.41,2.62.53.51,1.08,1,1.64,1.53.56.53,1.14,1,1.73,1.49.59.49,1.2,1,1.82,1.45.62.45,1.26,1,1.91,1.41l9.9,22.69Z"/>
    <path class="cls-1" d="m14.33,151.86l-.43-.78-.41-.79-.39-.8c-.13-.27-.26-.53-.38-.8l-9.84-22.26c.12.26.24.52.37.78.13.26.26.53.39.78l.4.78.43.77,9.87,22.32"/>
  </g>
</svg>